<svg width="375.000000" height="311.500000" viewBox="0 0 375 311.5" fill="none" xmlns="http://www.w3.org/2000/svg" xmlns:xlink="http://www.w3.org/1999/xlink">
	<desc>
			Created with Pixso.
	</desc>
	<defs>
		<clipPath id="clip1_900">
			<rect id="158726696_3d70624d-9344-48ff-a63f-e194cedd0d62 2" rx="-0.500000" width="374.000000" height="310.500000" transform="translate(0.500000 0.500000)" fill="white" fill-opacity="0"/>
		</clipPath>
	</defs>
	<g clip-path="url(#clip1_900)">
		<path id="Vector" d="M0 0L466 0L466 311.5L0 311.5L0 0Z" fill="#FFFFFF" fill-opacity="0" fill-rule="evenodd"/>
		<path id="Vector" d="M19.56 7.1C17.14 7.43 15.77 9.58 14.81 11.65C13.61 10 12.12 8.19 10.21 7.48C9.26 7.12 8.28 7.1 7.62 7.98C6.14 9.96 7.2 12.97 8.35 14.82C9.9 17.29 12.23 19.18 14.45 21.03C14.6 21.16 14.81 21 14.92 20.9C16.55 19.42 18.16 17.89 19.72 16.32C21.01 15.04 22.67 13.74 23.24 11.95C23.25 11.94 23.25 11.94 23.25 11.93C23.26 11.9 23.27 11.87 23.28 11.84C23.33 11.67 23.37 11.44 23.38 11.2C23.51 9 22.01 6.76 19.56 7.1ZM20.66 12.63C19.96 13.36 19.25 14.07 18.54 14.78C17.25 16.05 15.93 17.3 14.59 18.52C12.83 17.06 11.04 15.54 9.65 13.7C9.09 12.95 7.28 10.49 8.58 9.76C9.05 9.5 9.93 9.82 10.45 10.09C12.19 11.02 13.47 12.75 14.6 14.32C14.83 14.64 15.21 14.41 15.34 14.13C15.99 12.62 16.7 10.98 18.16 10.08C18.86 9.65 19.73 9.38 20.56 9.55C21.04 9.65 22.1 10.16 22.17 10.77C21.88 11.51 21.2 12.08 20.66 12.63Z" fill="#FFFFFF" fill-opacity="1.000000" fill-rule="nonzero"/>
		<path id="Vector" d="M74.02 7.1C71.59 7.43 70.23 9.58 69.27 11.65C68.06 10 66.58 8.19 64.67 7.48C63.72 7.12 62.73 7.1 62.08 7.98C60.6 9.96 61.66 12.97 62.81 14.82C64.36 17.29 66.68 19.18 68.9 21.03C69.06 21.16 69.26 21 69.37 20.9C71.01 19.42 72.61 17.89 74.18 16.32C75.46 15.04 77.12 13.74 77.7 11.95C77.7 11.94 77.7 11.94 77.71 11.93C77.72 11.9 77.73 11.87 77.74 11.84C77.79 11.67 77.82 11.44 77.83 11.2C77.96 9 76.46 6.76 74.02 7.1ZM75.12 12.63C74.42 13.36 73.71 14.07 72.99 14.78C71.7 16.05 70.39 17.3 69.05 18.52C67.29 17.06 65.49 15.54 64.11 13.7C63.55 12.95 61.74 10.49 63.04 9.76C63.5 9.5 64.39 9.82 64.9 10.09C66.64 11.02 67.93 12.75 69.05 14.32C69.29 14.64 69.67 14.41 69.79 14.13C70.44 12.62 71.15 10.98 72.61 10.08C73.32 9.65 74.19 9.38 75.02 9.55C75.5 9.65 76.56 10.16 76.62 10.77C76.34 11.51 75.65 12.08 75.12 12.63Z" fill="#FFFFFF" fill-opacity="1.000000" fill-rule="nonzero"/>
		<path id="Vector" d="M128.47 7.1C126.05 7.43 124.68 9.58 123.72 11.65C122.52 10 121.03 8.19 119.12 7.48C118.17 7.12 117.19 7.1 116.53 7.98C115.06 9.96 116.11 12.97 117.27 14.82C118.82 17.29 121.14 19.18 123.36 21.03C123.51 21.16 123.72 21 123.83 20.9C125.46 19.42 127.07 17.89 128.63 16.32C129.92 15.04 131.58 13.74 132.15 11.95C132.16 11.94 132.16 11.94 132.16 11.93C132.17 11.9 132.18 11.87 132.19 11.84C132.24 11.67 132.28 11.44 132.29 11.2C132.42 9 130.92 6.76 128.47 7.1ZM129.57 12.63C128.87 13.36 128.16 14.07 127.45 14.78C126.16 16.05 124.84 17.3 123.51 18.52C121.74 17.06 119.95 15.54 118.56 13.7C118 12.95 116.2 10.49 117.49 9.76C117.96 9.5 118.84 9.82 119.36 10.09C121.1 11.02 122.38 12.75 123.51 14.32C123.74 14.64 124.12 14.41 124.25 14.13C124.9 12.62 125.61 10.98 127.07 10.08C127.77 9.65 128.64 9.38 129.47 9.55C129.95 9.65 131.01 10.16 131.08 10.77C130.79 11.51 130.11 12.08 129.57 12.63Z" fill="#FFFFFF" fill-opacity="1.000000" fill-rule="nonzero"/>
		<path id="Vector" d="M182.93 7.1C180.5 7.43 179.14 9.58 178.18 11.65C176.98 10 175.49 8.19 173.58 7.48C172.63 7.12 171.64 7.1 170.99 7.98C169.51 9.96 170.57 12.97 171.72 14.82C173.27 17.29 175.59 19.18 177.81 21.03C177.97 21.16 178.18 21 178.28 20.9C179.92 19.42 181.52 17.89 183.09 16.32C184.37 15.04 186.03 13.74 186.61 11.95C186.61 11.94 186.61 11.94 186.62 11.93C186.63 11.9 186.64 11.87 186.65 11.84C186.7 11.67 186.74 11.44 186.74 11.2C186.88 9 185.37 6.76 182.93 7.1ZM184.03 12.63C183.33 13.36 182.62 14.07 181.9 14.78C180.61 16.05 179.3 17.3 177.96 18.52C176.2 17.06 174.4 15.54 173.02 13.7C172.46 12.95 170.65 10.49 171.95 9.76C172.42 9.5 173.3 9.82 173.81 10.09C175.55 11.02 176.84 12.75 177.96 14.32C178.2 14.64 178.58 14.41 178.7 14.13C179.35 12.62 180.07 10.98 181.52 10.08C182.23 9.65 183.1 9.38 183.93 9.55C184.41 9.65 185.47 10.16 185.53 10.77C185.25 11.51 184.56 12.08 184.03 12.63Z" fill="#FFFFFF" fill-opacity="1.000000" fill-rule="nonzero"/>
		<path id="Vector" d="M237.38 7.1C234.96 7.43 233.59 9.58 232.63 11.65C231.43 10 229.94 8.19 228.03 7.48C227.08 7.12 226.1 7.1 225.44 7.98C223.97 9.96 225.02 12.97 226.18 14.82C227.73 17.29 230.05 19.18 232.27 21.03C232.42 21.16 232.63 21 232.74 20.9C234.38 19.41 235.98 17.89 237.55 16.32C238.83 15.04 240.49 13.74 241.07 11.95C241.07 11.94 241.07 11.93 241.07 11.93C241.08 11.9 241.09 11.87 241.1 11.84C241.15 11.67 241.19 11.44 241.2 11.2C241.33 9 239.83 6.76 237.38 7.1ZM238.48 12.63C237.78 13.36 237.08 14.07 236.36 14.78C235.07 16.05 233.75 17.3 232.42 18.52C230.65 17.06 228.86 15.54 227.47 13.7C226.91 12.95 225.11 10.49 226.4 9.76C226.87 9.5 227.75 9.82 228.27 10.09C230.01 11.02 231.3 12.75 232.42 14.32C232.65 14.64 233.03 14.41 233.16 14.13C233.81 12.62 234.52 10.98 235.98 10.08C236.68 9.65 237.55 9.38 238.38 9.55C238.86 9.65 239.93 10.16 239.99 10.77C239.7 11.51 239.02 12.08 238.48 12.63Z" fill="#FFFFFF" fill-opacity="1.000000" fill-rule="nonzero"/>
		<path id="Vector" d="M291.84 7.1C289.41 7.43 288.05 9.58 287.09 11.65C285.89 10 284.4 8.19 282.49 7.48C281.54 7.12 280.55 7.1 279.9 7.98C278.42 9.96 279.48 12.97 280.63 14.82C282.18 17.29 284.5 19.18 286.72 21.03C286.88 21.16 287.09 21 287.19 20.9C288.83 19.42 290.44 17.89 292 16.32C293.28 15.04 294.94 13.74 295.52 11.95C295.52 11.94 295.53 11.94 295.53 11.93C295.54 11.9 295.55 11.87 295.56 11.84C295.61 11.67 295.65 11.44 295.65 11.2C295.79 9 294.28 6.76 291.84 7.1ZM292.94 12.63C292.24 13.36 291.53 14.07 290.81 14.78C289.53 16.05 288.21 17.3 286.87 18.52C285.11 17.06 283.31 15.54 281.93 13.7C281.37 12.95 279.56 10.49 280.86 9.76C281.32 9.5 282.21 9.82 282.72 10.09C284.47 11.02 285.75 12.75 286.87 14.32C287.11 14.64 287.49 14.41 287.61 14.13C288.26 12.62 288.98 10.98 290.43 10.08C291.14 9.65 292.01 9.38 292.84 9.55C293.32 9.65 294.38 10.16 294.44 10.77C294.16 11.51 293.48 12.08 292.94 12.63Z" fill="#FFFFFF" fill-opacity="1.000000" fill-rule="nonzero"/>
		<path id="Vector" d="M346.29 7.1C343.87 7.43 342.5 9.58 341.54 11.65C340.34 10 338.85 8.19 336.95 7.48C335.99 7.12 335.01 7.1 334.35 7.98C332.88 9.96 333.93 12.97 335.09 14.82C336.64 17.29 338.96 19.18 341.18 21.03C341.33 21.16 341.54 21 341.65 20.9C343.29 19.42 344.89 17.89 346.46 16.32C347.74 15.04 349.4 13.74 349.98 11.95C349.98 11.94 349.98 11.93 349.98 11.93C349.99 11.9 350 11.87 350.01 11.84C350.06 11.67 350.1 11.44 350.11 11.2C350.24 9 348.74 6.76 346.29 7.1ZM347.39 12.63C346.69 13.36 345.99 14.07 345.27 14.78C343.98 16.05 342.66 17.3 341.33 18.52C339.56 17.06 337.77 15.54 336.38 13.7C335.82 12.95 334.02 10.49 335.32 9.76C335.78 9.5 336.66 9.82 337.18 10.09C338.92 11.02 340.21 12.75 341.33 14.32C341.56 14.64 341.94 14.41 342.07 14.13C342.72 12.62 343.43 10.98 344.89 10.08C345.59 9.65 346.46 9.38 347.29 9.55C347.77 9.65 348.84 10.16 348.9 10.77C348.61 11.51 347.93 12.08 347.39 12.63Z" fill="#FFFFFF" fill-opacity="1.000000" fill-rule="nonzero"/>
		<path id="Vector" d="M400.75 7.1C398.32 7.43 396.96 9.58 396 11.65C394.8 10 393.31 8.19 391.4 7.48C390.45 7.12 389.46 7.1 388.81 7.98C387.33 9.96 388.39 12.97 389.54 14.82C391.09 17.29 393.41 19.18 395.63 21.03C395.79 21.16 396 21 396.1 20.9C397.74 19.42 399.35 17.89 400.91 16.32C402.19 15.04 403.85 13.74 404.43 11.95C404.43 11.94 404.44 11.94 404.44 11.93C404.45 11.9 404.46 11.87 404.47 11.84C404.52 11.67 404.56 11.44 404.56 11.2C404.7 9 403.19 6.76 400.75 7.1ZM401.85 12.63C401.15 13.36 400.44 14.07 399.72 14.78C398.44 16.05 397.12 17.3 395.78 18.52C394.02 17.06 392.22 15.54 390.84 13.7C390.28 12.95 388.47 10.49 389.77 9.76C390.24 9.5 391.12 9.82 391.64 10.09C393.38 11.02 394.66 12.75 395.79 14.32C396.02 14.64 396.4 14.41 396.52 14.13C397.18 12.62 397.89 10.98 399.34 10.08C400.05 9.65 400.92 9.38 401.75 9.55C402.23 9.65 403.29 10.16 403.35 10.77C403.07 11.51 402.39 12.08 401.85 12.63Z" fill="#FFFFFF" fill-opacity="1.000000" fill-rule="nonzero"/>
		<path id="Vector" d="M450.09 21.03C450.25 21.16 450.45 21 450.56 20.9C452.2 19.41 453.8 17.89 455.37 16.32C456.65 15.04 458.31 13.74 458.89 11.95C458.89 11.94 458.89 11.93 458.89 11.93C458.9 11.9 458.91 11.87 458.92 11.84C458.97 11.67 459.01 11.44 459.02 11.2C459.15 9 457.65 6.76 455.21 7.1C452.78 7.43 451.41 9.58 450.45 11.65C449.25 10 447.76 8.19 445.86 7.48C444.9 7.12 443.92 7.1 443.27 7.98C441.79 9.96 442.84 12.97 444 14.82C445.55 17.29 447.87 19.18 450.09 21.03ZM444.23 9.76C444.69 9.5 445.57 9.82 446.09 10.09C447.83 11.02 449.12 12.75 450.24 14.32C450.47 14.64 450.85 14.41 450.98 14.13C451.63 12.62 452.34 10.98 453.8 10.08C454.5 9.65 455.37 9.38 456.2 9.55C456.69 9.65 457.75 10.15 457.81 10.77C457.52 11.51 456.84 12.08 456.3 12.63C455.6 13.36 454.9 14.07 454.18 14.78C452.89 16.05 451.57 17.3 450.24 18.52C448.47 17.06 446.68 15.54 445.29 13.7C444.74 12.95 442.93 10.49 444.23 9.76Z" fill="#FFFFFF" fill-opacity="1.000000" fill-rule="nonzero"/>
		<path id="Vector" d="M46.79 47.57C44.36 47.91 43 50.06 42.04 52.13C40.84 50.48 39.35 48.67 37.44 47.96C36.49 47.6 35.5 47.58 34.85 48.46C33.37 50.44 34.43 53.45 35.58 55.3C37.13 57.77 39.46 59.66 41.67 61.51C41.83 61.64 42.04 61.48 42.14 61.38C43.78 59.89 45.39 58.37 46.95 56.8C48.23 55.52 49.89 54.22 50.47 52.43C50.47 52.42 50.48 52.42 50.48 52.41C50.49 52.38 50.5 52.35 50.51 52.32C50.56 52.15 50.6 51.92 50.6 51.68C50.74 49.48 49.23 47.24 46.79 47.57ZM47.89 53.11C47.19 53.84 46.48 54.55 45.77 55.26C44.48 56.53 43.16 57.78 41.82 59C40.06 57.54 38.26 56.02 36.88 54.18C36.32 53.43 34.51 50.97 35.81 50.24C36.28 49.98 37.16 50.3 37.68 50.57C39.42 51.5 40.7 53.23 41.83 54.8C42.06 55.12 42.44 54.89 42.56 54.61C43.22 53.1 43.93 51.46 45.38 50.56C46.09 50.13 46.96 49.86 47.79 50.03C48.27 50.13 49.33 50.63 49.4 51.25C49.11 51.99 48.43 52.56 47.89 53.11Z" fill="#FFFFFF" fill-opacity="1.000000" fill-rule="nonzero"/>
		<path id="Vector" d="M101.25 47.57C98.82 47.91 97.45 50.06 96.49 52.13C95.29 50.48 93.8 48.67 91.9 47.96C90.95 47.6 89.96 47.58 89.31 48.46C87.83 50.44 88.88 53.45 90.04 55.3C91.59 57.77 93.91 59.66 96.13 61.51C96.29 61.64 96.49 61.48 96.6 61.38C98.24 59.89 99.84 58.37 101.41 56.8C102.69 55.52 104.35 54.22 104.93 52.43C104.93 52.42 104.93 52.41 104.94 52.41C104.94 52.38 104.96 52.35 104.96 52.32C105.01 52.15 105.05 51.92 105.06 51.68C105.19 49.48 103.69 47.24 101.25 47.57ZM102.34 53.11C101.64 53.84 100.94 54.55 100.22 55.26C98.93 56.53 97.62 57.78 96.28 59C94.51 57.54 92.72 56.02 91.33 54.18C90.78 53.43 88.97 50.97 90.27 50.24C90.73 49.98 91.61 50.3 92.13 50.57C93.87 51.5 95.16 53.23 96.28 54.8C96.51 55.12 96.89 54.89 97.02 54.61C97.67 53.1 98.38 51.46 99.84 50.56C100.55 50.13 101.41 49.86 102.24 50.03C102.73 50.13 103.79 50.63 103.85 51.25C103.57 51.99 102.88 52.56 102.34 53.11Z" fill="#FFFFFF" fill-opacity="1.000000" fill-rule="nonzero"/>
		<path id="Vector" d="M155.7 47.57C153.27 47.91 151.91 50.06 150.95 52.13C149.75 50.48 148.26 48.67 146.35 47.96C145.4 47.6 144.42 47.58 143.76 48.46C142.28 50.44 143.34 53.45 144.49 55.3C146.04 57.77 148.37 59.66 150.58 61.51C150.74 61.64 150.95 61.48 151.05 61.38C152.69 59.89 154.3 58.37 155.86 56.8C157.14 55.52 158.81 54.22 159.38 52.43C159.38 52.42 159.39 52.42 159.39 52.41C159.4 52.38 159.41 52.35 159.42 52.32C159.47 52.15 159.51 51.92 159.51 51.68C159.65 49.48 158.14 47.24 155.7 47.57ZM156.8 53.11C156.1 53.84 155.39 54.55 154.68 55.26C153.39 56.53 152.07 57.78 150.73 59C148.97 57.54 147.17 56.02 145.79 54.18C145.23 53.43 143.42 50.97 144.72 50.24C145.19 49.98 146.07 50.3 146.59 50.57C148.33 51.5 149.61 53.23 150.74 54.8C150.97 55.12 151.35 54.89 151.48 54.61C152.13 53.1 152.84 51.46 154.3 50.56C155 50.13 155.87 49.86 156.7 50.03C157.18 50.13 158.24 50.63 158.31 51.25C158.02 51.99 157.34 52.56 156.8 53.11Z" fill="#FFFFFF" fill-opacity="1.000000" fill-rule="nonzero"/>
		<path id="Vector" d="M210.16 47.57C207.73 47.91 206.37 50.06 205.4 52.13C204.2 50.48 202.71 48.67 200.81 47.96C199.86 47.6 198.87 47.58 198.22 48.46C196.74 50.44 197.79 53.45 198.95 55.3C200.5 57.77 202.82 59.66 205.04 61.51C205.2 61.64 205.4 61.48 205.51 61.38C207.15 59.89 208.75 58.37 210.32 56.8C211.6 55.52 213.26 54.22 213.84 52.43C213.84 52.42 213.84 52.41 213.85 52.41C213.85 52.38 213.87 52.35 213.87 52.32C213.92 52.15 213.96 51.92 213.97 51.68C214.1 49.48 212.6 47.24 210.16 47.57ZM211.26 53.11C210.56 53.84 209.85 54.55 209.13 55.26C207.84 56.53 206.53 57.78 205.19 59C203.42 57.54 201.63 56.02 200.25 54.18C199.69 53.43 197.88 50.97 199.18 50.24C199.64 49.98 200.52 50.3 201.04 50.57C202.78 51.5 204.07 53.23 205.19 54.8C205.43 55.12 205.81 54.89 205.93 54.61C206.58 53.1 207.29 51.46 208.75 50.56C209.46 50.13 210.32 49.86 211.15 50.03C211.64 50.13 212.7 50.63 212.76 51.25C212.48 51.99 211.79 52.56 211.26 53.11Z" fill="#FFFFFF" fill-opacity="1.000000" fill-rule="nonzero"/>
		<path id="Vector" d="M264.61 47.57C262.19 47.91 260.82 50.06 259.86 52.13C258.66 50.48 257.17 48.67 255.26 47.96C254.31 47.6 253.33 47.58 252.67 48.46C251.19 50.44 252.25 53.45 253.4 55.3C254.95 57.77 257.28 59.66 259.5 61.51C259.65 61.64 259.86 61.48 259.96 61.38C261.6 59.89 263.21 58.37 264.77 56.8C266.06 55.52 267.72 54.22 268.29 52.43C268.29 52.42 268.3 52.42 268.3 52.41C268.31 52.38 268.32 52.35 268.33 52.32C268.38 52.15 268.42 51.92 268.42 51.68C268.56 49.48 267.05 47.24 264.61 47.57ZM265.71 53.11C265.01 53.84 264.3 54.55 263.59 55.26C262.3 56.53 260.98 57.78 259.64 59C257.88 57.54 256.09 56.02 254.7 54.18C254.14 53.43 252.33 50.97 253.63 50.24C254.1 49.98 254.98 50.3 255.5 50.57C257.24 51.5 258.52 53.23 259.65 54.8C259.88 55.12 260.26 54.89 260.39 54.61C261.04 53.1 261.75 51.46 263.21 50.56C263.91 50.13 264.78 49.86 265.61 50.03C266.09 50.13 267.15 50.63 267.22 51.25C266.93 51.99 266.25 52.56 265.71 53.11Z" fill="#FFFFFF" fill-opacity="1.000000" fill-rule="nonzero"/>
		<path id="Vector" d="M319.07 47.57C316.64 47.91 315.28 50.06 314.31 52.13C313.11 50.48 311.62 48.67 309.72 47.96C308.77 47.6 307.78 47.58 307.13 48.46C305.65 50.44 306.71 53.45 307.86 55.3C309.41 57.77 311.73 59.66 313.95 61.51C314.11 61.64 314.31 61.48 314.42 61.38C316.06 59.89 317.66 58.37 319.23 56.8C320.51 55.52 322.17 54.22 322.75 52.43C322.75 52.42 322.75 52.42 322.76 52.41C322.76 52.38 322.78 52.35 322.78 52.32C322.84 52.15 322.87 51.92 322.88 51.68C323.01 49.48 321.51 47.24 319.07 47.57ZM320.17 53.11C319.47 53.84 318.76 54.55 318.04 55.26C316.75 56.53 315.44 57.78 314.1 59C312.33 57.54 310.54 56.02 309.16 54.18C308.6 53.43 306.79 50.97 308.09 50.24C308.55 49.98 309.44 50.3 309.95 50.57C311.69 51.5 312.98 53.23 314.1 54.8C314.34 55.12 314.72 54.89 314.84 54.61C315.49 53.1 316.2 51.46 317.66 50.56C318.37 50.13 319.23 49.86 320.06 50.03C320.55 50.13 321.61 50.63 321.67 51.25C321.39 51.99 320.7 52.56 320.17 53.11Z" fill="#FFFFFF" fill-opacity="1.000000" fill-rule="nonzero"/>
		<path id="Vector" d="M373.52 47.57C371.1 47.91 369.73 50.06 368.77 52.13C367.57 50.48 366.08 48.67 364.17 47.96C363.22 47.6 362.24 47.58 361.58 48.46C360.1 50.44 361.16 53.45 362.31 55.3C363.86 57.77 366.19 59.66 368.41 61.51C368.56 61.64 368.77 61.48 368.88 61.38C370.51 59.89 372.12 58.37 373.68 56.8C374.97 55.52 376.63 54.22 377.2 52.43C377.21 52.42 377.21 52.42 377.21 52.41C377.22 52.38 377.23 52.35 377.24 52.32C377.29 52.15 377.33 51.92 377.34 51.68C377.47 49.48 375.97 47.24 373.52 47.57ZM374.62 53.11C373.92 53.84 373.21 54.55 372.5 55.26C371.21 56.53 369.89 57.78 368.55 59C366.79 57.54 365 56.02 363.61 54.18C363.05 53.43 361.24 50.97 362.54 50.24C363.01 49.98 363.89 50.3 364.41 50.57C366.15 51.5 367.43 53.23 368.56 54.8C368.79 55.12 369.17 54.89 369.3 54.61C369.95 53.1 370.66 51.46 372.12 50.56C372.82 50.13 373.69 49.86 374.52 50.03C375 50.13 376.06 50.63 376.13 51.25C375.84 51.99 375.16 52.56 374.62 53.11Z" fill="#FFFFFF" fill-opacity="1.000000" fill-rule="nonzero"/>
		<path id="Vector" d="M427.98 47.57C425.55 47.91 424.19 50.06 423.22 52.13C422.02 50.48 420.54 48.67 418.63 47.96C417.68 47.6 416.69 47.58 416.04 48.46C414.56 50.44 415.62 53.45 416.77 55.3C418.32 57.77 420.64 59.66 422.86 61.51C423.02 61.64 423.22 61.48 423.33 61.38C424.97 59.89 426.57 58.37 428.14 56.8C429.42 55.52 431.08 54.22 431.66 52.43C431.66 52.42 431.66 52.42 431.67 52.41C431.68 52.38 431.69 52.35 431.7 52.32C431.75 52.15 431.78 51.92 431.79 51.68C431.92 49.48 430.42 47.24 427.98 47.57ZM429.08 53.11C428.38 53.84 427.67 54.55 426.95 55.26C425.66 56.53 424.35 57.78 423.01 59C421.25 57.54 419.45 56.02 418.07 54.18C417.51 53.43 415.7 50.97 417 50.24C417.46 49.98 418.35 50.3 418.86 50.57C420.6 51.5 421.89 53.23 423.01 54.8C423.25 55.12 423.63 54.89 423.75 54.61C424.4 53.1 425.11 51.46 426.57 50.56C427.28 50.13 428.14 49.86 428.98 50.03C429.46 50.13 430.52 50.63 430.58 51.25C430.3 51.99 429.61 52.56 429.08 53.11Z" fill="#FFFFFF" fill-opacity="1.000000" fill-rule="nonzero"/>
		<path id="Vector" d="M19.56 88.05C17.14 88.39 15.77 90.54 14.81 92.61C13.61 90.96 12.12 89.15 10.21 88.44C9.26 88.08 8.28 88.06 7.62 88.94C6.14 90.92 7.2 93.93 8.35 95.78C9.91 98.25 12.23 100.14 14.45 101.99C14.6 102.12 14.81 101.96 14.92 101.86C16.55 100.37 18.16 98.85 19.72 97.28C21.01 96 22.67 94.69 23.24 92.91C23.25 92.9 23.25 92.9 23.25 92.89C23.26 92.86 23.27 92.83 23.28 92.8C23.33 92.63 23.37 92.4 23.38 92.16C23.51 89.96 22.01 87.72 19.56 88.05ZM20.66 93.59C19.96 94.32 19.25 95.03 18.54 95.74C17.25 97.01 15.93 98.26 14.59 99.48C12.83 98.02 11.04 96.5 9.65 94.66C9.09 93.91 7.28 91.45 8.58 90.72C9.05 90.46 9.93 90.78 10.45 91.05C12.19 91.98 13.47 93.71 14.6 95.28C14.83 95.6 15.21 95.37 15.34 95.09C15.99 93.58 16.7 91.94 18.16 91.04C18.86 90.61 19.73 90.34 20.56 90.51C21.04 90.61 22.1 91.11 22.17 91.73C21.88 92.47 21.2 93.04 20.66 93.59Z" fill="#FFFFFF" fill-opacity="1.000000" fill-rule="nonzero"/>
		<path id="Vector" d="M74.02 88.05C71.59 88.39 70.23 90.54 69.27 92.61C68.06 90.96 66.58 89.15 64.67 88.44C63.72 88.08 62.73 88.06 62.08 88.94C60.6 90.92 61.66 93.93 62.81 95.78C64.36 98.25 66.68 100.14 68.9 101.99C69.06 102.12 69.26 101.96 69.37 101.86C71.01 100.37 72.61 98.85 74.18 97.28C75.46 96 77.12 94.7 77.7 92.91C77.7 92.9 77.7 92.9 77.71 92.89C77.72 92.86 77.73 92.83 77.74 92.8C77.79 92.63 77.82 92.4 77.83 92.16C77.96 89.96 76.46 87.72 74.02 88.05ZM75.12 93.59C74.42 94.32 73.71 95.03 72.99 95.74C71.7 97.01 70.39 98.26 69.05 99.48C67.29 98.02 65.49 96.5 64.11 94.66C63.55 93.91 61.74 91.45 63.04 90.72C63.5 90.46 64.39 90.78 64.9 91.05C66.64 91.98 67.93 93.71 69.05 95.28C69.29 95.6 69.67 95.37 69.79 95.09C70.44 93.58 71.15 91.94 72.61 91.04C73.32 90.61 74.19 90.34 75.02 90.51C75.5 90.61 76.56 91.11 76.62 91.73C76.34 92.47 75.65 93.04 75.12 93.59Z" fill="#FFFFFF" fill-opacity="1.000000" fill-rule="nonzero"/>
		<path id="Vector" d="M128.47 88.05C126.05 88.39 124.68 90.54 123.72 92.61C122.52 90.96 121.03 89.15 119.12 88.44C118.17 88.08 117.19 88.06 116.53 88.94C115.06 90.92 116.11 93.93 117.27 95.78C118.82 98.25 121.14 100.14 123.36 101.99C123.51 102.12 123.72 101.96 123.83 101.86C125.46 100.37 127.07 98.85 128.63 97.28C129.92 96 131.58 94.7 132.15 92.91C132.16 92.9 132.16 92.9 132.16 92.89C132.17 92.86 132.18 92.83 132.19 92.8C132.24 92.63 132.28 92.4 132.29 92.16C132.42 89.96 130.92 87.72 128.47 88.05ZM129.57 93.59C128.87 94.32 128.16 95.03 127.45 95.74C126.16 97.01 124.84 98.26 123.51 99.48C121.74 98.02 119.95 96.5 118.56 94.66C118 93.91 116.2 91.45 117.49 90.72C117.96 90.46 118.84 90.78 119.36 91.05C121.1 91.98 122.38 93.71 123.51 95.28C123.74 95.6 124.12 95.37 124.25 95.09C124.9 93.58 125.61 91.94 127.07 91.04C127.77 90.61 128.64 90.34 129.47 90.51C129.95 90.61 131.01 91.11 131.08 91.73C130.79 92.47 130.11 93.04 129.57 93.59Z" fill="#FFFFFF" fill-opacity="1.000000" fill-rule="nonzero"/>
		<path id="Vector" d="M182.93 88.05C180.5 88.39 179.14 90.54 178.18 92.61C176.98 90.96 175.49 89.15 173.58 88.44C172.63 88.08 171.64 88.06 170.99 88.94C169.51 90.92 170.57 93.93 171.72 95.78C173.27 98.25 175.59 100.14 177.81 101.99C177.97 102.12 178.18 101.96 178.28 101.86C179.92 100.37 181.52 98.85 183.09 97.28C184.37 96 186.03 94.7 186.61 92.91C186.61 92.9 186.61 92.9 186.62 92.89C186.63 92.86 186.64 92.83 186.65 92.8C186.7 92.63 186.74 92.4 186.74 92.16C186.88 89.96 185.37 87.72 182.93 88.05ZM184.03 93.59C183.33 94.32 182.62 95.03 181.9 95.74C180.61 97.01 179.3 98.26 177.96 99.48C176.2 98.02 174.4 96.5 173.02 94.66C172.46 93.91 170.65 91.45 171.95 90.72C172.42 90.46 173.3 90.78 173.81 91.05C175.55 91.98 176.84 93.71 177.96 95.28C178.2 95.6 178.58 95.37 178.7 95.09C179.35 93.58 180.07 91.94 181.52 91.04C182.23 90.61 183.1 90.34 183.93 90.51C184.41 90.61 185.47 91.11 185.53 91.73C185.25 92.47 184.56 93.04 184.03 93.59Z" fill="#FFFFFF" fill-opacity="1.000000" fill-rule="nonzero"/>
		<path id="Vector" d="M237.38 88.05C234.96 88.39 233.59 90.54 232.63 92.61C231.43 90.96 229.94 89.15 228.03 88.44C227.08 88.08 226.1 88.06 225.44 88.94C223.97 90.92 225.02 93.93 226.18 95.78C227.73 98.25 230.05 100.14 232.27 101.99C232.42 102.12 232.63 101.96 232.74 101.86C234.38 100.37 235.98 98.85 237.55 97.28C238.83 96 240.49 94.7 241.07 92.91C241.07 92.9 241.07 92.89 241.07 92.89C241.08 92.86 241.09 92.83 241.1 92.8C241.15 92.63 241.19 92.4 241.2 92.16C241.33 89.96 239.83 87.72 237.38 88.05ZM238.48 93.59C237.78 94.32 237.08 95.03 236.36 95.74C235.07 97.01 233.75 98.26 232.42 99.48C230.65 98.02 228.86 96.5 227.47 94.66C226.91 93.91 225.11 91.45 226.4 90.72C226.87 90.46 227.75 90.78 228.27 91.05C230.01 91.98 231.3 93.71 232.42 95.28C232.65 95.6 233.03 95.37 233.16 95.09C233.81 93.58 234.52 91.94 235.98 91.04C236.68 90.61 237.55 90.34 238.38 90.51C238.86 90.61 239.93 91.11 239.99 91.73C239.7 92.47 239.02 93.04 238.48 93.59Z" fill="#FFFFFF" fill-opacity="1.000000" fill-rule="nonzero"/>
		<path id="Vector" d="M291.84 88.05C289.41 88.39 288.05 90.54 287.09 92.61C285.89 90.96 284.4 89.15 282.49 88.44C281.54 88.08 280.55 88.06 279.9 88.94C278.42 90.92 279.48 93.93 280.63 95.78C282.18 98.25 284.5 100.14 286.72 101.99C286.88 102.12 287.09 101.96 287.19 101.86C288.83 100.37 290.44 98.85 292 97.28C293.28 96 294.94 94.7 295.52 92.91C295.52 92.9 295.53 92.9 295.53 92.89C295.54 92.86 295.55 92.83 295.56 92.8C295.61 92.63 295.65 92.4 295.65 92.16C295.79 89.96 294.28 87.72 291.84 88.05ZM292.94 93.59C292.24 94.32 291.53 95.03 290.81 95.74C289.53 97.01 288.21 98.26 286.87 99.48C285.11 98.02 283.31 96.5 281.93 94.66C281.37 93.91 279.56 91.45 280.86 90.72C281.32 90.46 282.21 90.78 282.72 91.05C284.47 91.98 285.75 93.71 286.87 95.28C287.11 95.6 287.49 95.37 287.61 95.09C288.26 93.58 288.98 91.94 290.43 91.04C291.14 90.61 292.01 90.34 292.84 90.51C293.32 90.61 294.38 91.11 294.44 91.73C294.16 92.47 293.48 93.04 292.94 93.59Z" fill="#FFFFFF" fill-opacity="1.000000" fill-rule="nonzero"/>
		<path id="Vector" d="M346.29 88.05C343.87 88.39 342.5 90.54 341.54 92.61C340.34 90.96 338.85 89.15 336.95 88.44C335.99 88.08 335.01 88.06 334.35 88.94C332.88 90.92 333.93 93.93 335.09 95.78C336.64 98.25 338.96 100.14 341.18 101.99C341.33 102.12 341.54 101.96 341.65 101.86C343.29 100.37 344.89 98.85 346.46 97.28C347.74 96 349.4 94.7 349.98 92.91C349.98 92.9 349.98 92.89 349.98 92.89C349.99 92.86 350 92.83 350.01 92.8C350.06 92.63 350.1 92.4 350.11 92.16C350.24 89.96 348.74 87.72 346.29 88.05ZM347.39 93.59C346.69 94.32 345.99 95.03 345.27 95.74C343.98 97.01 342.66 98.26 341.33 99.48C339.56 98.02 337.77 96.5 336.38 94.66C335.82 93.91 334.02 91.45 335.32 90.72C335.78 90.46 336.66 90.78 337.18 91.05C338.92 91.98 340.21 93.71 341.33 95.28C341.56 95.6 341.94 95.37 342.07 95.09C342.72 93.58 343.43 91.94 344.89 91.04C345.59 90.61 346.46 90.34 347.29 90.51C347.77 90.61 348.84 91.11 348.9 91.73C348.61 92.47 347.93 93.04 347.39 93.59Z" fill="#FFFFFF" fill-opacity="1.000000" fill-rule="nonzero"/>
		<path id="Vector" d="M400.75 88.05C398.32 88.39 396.96 90.54 396 92.61C394.8 90.96 393.31 89.15 391.4 88.44C390.45 88.08 389.46 88.06 388.81 88.94C387.33 90.92 388.39 93.93 389.54 95.78C391.09 98.25 393.41 100.14 395.63 101.99C395.79 102.12 396 101.96 396.1 101.86C397.74 100.37 399.35 98.85 400.91 97.28C402.19 96 403.85 94.7 404.43 92.91C404.43 92.9 404.44 92.9 404.44 92.89C404.45 92.86 404.46 92.83 404.47 92.8C404.52 92.63 404.56 92.4 404.56 92.16C404.7 89.96 403.19 87.72 400.75 88.05ZM401.85 93.59C401.15 94.32 400.44 95.03 399.72 95.74C398.44 97.01 397.12 98.26 395.78 99.48C394.02 98.02 392.22 96.5 390.84 94.66C390.28 93.91 388.47 91.45 389.77 90.72C390.24 90.46 391.12 90.78 391.64 91.05C393.38 91.98 394.66 93.71 395.79 95.28C396.02 95.6 396.4 95.37 396.52 95.09C397.18 93.58 397.89 91.94 399.34 91.04C400.05 90.61 400.92 90.34 401.75 90.51C402.23 90.61 403.29 91.11 403.35 91.73C403.07 92.47 402.39 93.04 401.85 93.59Z" fill="#FFFFFF" fill-opacity="1.000000" fill-rule="nonzero"/>
		<path id="Vector" d="M455.21 88.05C452.78 88.39 451.41 90.54 450.45 92.61C449.25 90.96 447.76 89.15 445.86 88.44C444.9 88.08 443.92 88.06 443.27 88.94C441.79 90.92 442.84 93.93 444 95.78C445.55 98.25 447.87 100.14 450.09 101.99C450.25 102.12 450.45 101.96 450.56 101.86C452.2 100.37 453.8 98.85 455.37 97.28C456.65 96 458.31 94.7 458.89 92.91C458.89 92.9 458.89 92.89 458.89 92.89C458.9 92.86 458.91 92.83 458.92 92.8C458.97 92.63 459.01 92.4 459.02 92.16C459.15 89.96 457.65 87.72 455.21 88.05ZM456.3 93.59C455.6 94.32 454.9 95.03 454.18 95.74C452.89 97.01 451.57 98.26 450.24 99.48C448.47 98.02 446.68 96.5 445.29 94.66C444.74 93.91 442.93 91.45 444.23 90.72C444.69 90.46 445.57 90.78 446.09 91.05C447.83 91.98 449.12 93.71 450.24 95.28C450.47 95.6 450.85 95.37 450.98 95.09C451.63 93.58 452.34 91.94 453.8 91.04C454.5 90.61 455.37 90.34 456.2 90.51C456.68 90.61 457.75 91.11 457.81 91.73C457.52 92.47 456.84 93.04 456.3 93.59Z" fill="#FFFFFF" fill-opacity="1.000000" fill-rule="nonzero"/>
		<path id="Vector" d="M46.79 128.53C44.36 128.87 43 131.02 42.04 133.09C40.84 131.44 39.35 129.63 37.44 128.92C36.49 128.56 35.5 128.54 34.85 129.42C33.37 131.4 34.43 134.41 35.58 136.25C37.13 138.73 39.46 140.62 41.67 142.47C41.83 142.6 42.04 142.44 42.14 142.34C43.78 140.85 45.39 139.33 46.95 137.76C48.23 136.48 49.89 135.17 50.47 133.39C50.47 133.38 50.48 133.38 50.48 133.37C50.49 133.34 50.5 133.31 50.51 133.28C50.56 133.11 50.6 132.88 50.6 132.64C50.74 130.44 49.23 128.2 46.79 128.53ZM47.89 134.07C47.19 134.8 46.48 135.51 45.77 136.22C44.48 137.49 43.16 138.74 41.82 139.96C40.06 138.5 38.26 136.98 36.88 135.14C36.32 134.39 34.51 131.93 35.81 131.2C36.28 130.94 37.16 131.25 37.68 131.53C39.42 132.46 40.7 134.19 41.83 135.76C42.06 136.08 42.44 135.85 42.56 135.57C43.22 134.06 43.93 132.42 45.38 131.52C46.09 131.09 46.96 130.82 47.79 130.99C48.27 131.09 49.33 131.59 49.4 132.21C49.11 132.95 48.43 133.52 47.89 134.07Z" fill="#FFFFFF" fill-opacity="1.000000" fill-rule="nonzero"/>
		<path id="Vector" d="M101.25 128.53C98.82 128.87 97.45 131.02 96.49 133.09C95.29 131.44 93.8 129.63 91.9 128.92C90.95 128.56 89.96 128.54 89.31 129.42C87.83 131.4 88.88 134.41 90.04 136.25C91.59 138.73 93.91 140.62 96.13 142.47C96.29 142.6 96.49 142.44 96.6 142.34C98.24 140.85 99.84 139.33 101.41 137.76C102.69 136.48 104.35 135.17 104.93 133.39C104.93 133.38 104.93 133.37 104.94 133.37C104.94 133.34 104.96 133.31 104.96 133.28C105.01 133.11 105.05 132.88 105.06 132.64C105.19 130.44 103.69 128.2 101.25 128.53ZM102.34 134.07C101.64 134.8 100.94 135.51 100.22 136.22C98.93 137.49 97.62 138.74 96.28 139.96C94.51 138.5 92.72 136.98 91.33 135.14C90.78 134.39 88.97 131.93 90.27 131.2C90.73 130.94 91.61 131.25 92.13 131.53C93.87 132.46 95.16 134.19 96.28 135.76C96.51 136.08 96.89 135.85 97.02 135.57C97.67 134.06 98.38 132.42 99.84 131.52C100.55 131.09 101.41 130.82 102.24 130.99C102.73 131.09 103.79 131.59 103.85 132.21C103.57 132.95 102.88 133.52 102.34 134.07Z" fill="#FFFFFF" fill-opacity="1.000000" fill-rule="nonzero"/>
		<path id="Vector" d="M155.7 128.53C153.27 128.87 151.91 131.02 150.95 133.09C149.75 131.44 148.26 129.63 146.35 128.92C145.4 128.56 144.42 128.54 143.76 129.42C142.28 131.4 143.34 134.41 144.49 136.25C146.04 138.73 148.37 140.62 150.58 142.47C150.74 142.6 150.95 142.44 151.05 142.34C152.69 140.85 154.3 139.33 155.86 137.76C157.14 136.48 158.81 135.17 159.38 133.39C159.38 133.38 159.39 133.38 159.39 133.37C159.4 133.34 159.41 133.31 159.42 133.28C159.47 133.11 159.51 132.88 159.51 132.64C159.65 130.44 158.14 128.2 155.7 128.53ZM156.8 134.07C156.1 134.8 155.39 135.51 154.68 136.22C153.39 137.49 152.07 138.74 150.73 139.96C148.97 138.5 147.17 136.98 145.79 135.14C145.23 134.39 143.42 131.93 144.72 131.2C145.19 130.94 146.07 131.25 146.59 131.53C148.33 132.46 149.61 134.19 150.74 135.76C150.97 136.08 151.35 135.85 151.48 135.57C152.13 134.06 152.84 132.42 154.3 131.52C155 131.09 155.87 130.82 156.7 130.99C157.18 131.09 158.24 131.59 158.31 132.21C158.02 132.95 157.34 133.52 156.8 134.07Z" fill="#FFFFFF" fill-opacity="1.000000" fill-rule="nonzero"/>
		<path id="Vector" d="M210.16 128.53C207.73 128.87 206.37 131.02 205.4 133.09C204.2 131.44 202.71 129.63 200.81 128.92C199.86 128.56 198.87 128.54 198.22 129.42C196.74 131.4 197.79 134.41 198.95 136.25C200.5 138.73 202.82 140.62 205.04 142.47C205.2 142.6 205.4 142.44 205.51 142.34C207.15 140.85 208.75 139.33 210.32 137.76C211.6 136.48 213.26 135.17 213.84 133.39C213.84 133.38 213.84 133.37 213.85 133.37C213.85 133.34 213.87 133.31 213.87 133.28C213.92 133.11 213.96 132.88 213.97 132.64C214.1 130.44 212.6 128.2 210.16 128.53ZM211.26 134.07C210.56 134.8 209.85 135.51 209.13 136.22C207.84 137.49 206.53 138.74 205.19 139.96C203.42 138.5 201.63 136.98 200.25 135.14C199.69 134.39 197.88 131.93 199.18 131.2C199.64 130.94 200.52 131.25 201.04 131.53C202.78 132.46 204.07 134.19 205.19 135.76C205.43 136.08 205.81 135.85 205.93 135.57C206.58 134.06 207.29 132.42 208.75 131.52C209.46 131.09 210.32 130.82 211.15 130.99C211.64 131.09 212.7 131.59 212.76 132.21C212.48 132.95 211.79 133.52 211.26 134.07Z" fill="#FFFFFF" fill-opacity="1.000000" fill-rule="nonzero"/>
		<path id="Vector" d="M264.61 128.53C262.19 128.87 260.82 131.02 259.86 133.09C258.66 131.44 257.17 129.63 255.26 128.92C254.31 128.56 253.33 128.54 252.67 129.42C251.19 131.4 252.25 134.41 253.4 136.25C254.95 138.73 257.28 140.62 259.5 142.47C259.65 142.6 259.86 142.44 259.96 142.34C261.6 140.85 263.21 139.33 264.77 137.76C266.06 136.48 267.72 135.17 268.29 133.39C268.29 133.38 268.3 133.38 268.3 133.37C268.31 133.34 268.32 133.31 268.33 133.28C268.38 133.11 268.42 132.88 268.42 132.64C268.56 130.44 267.05 128.2 264.61 128.53ZM265.71 134.07C265.01 134.8 264.3 135.51 263.59 136.22C262.3 137.49 260.98 138.74 259.64 139.96C257.88 138.5 256.09 136.98 254.7 135.14C254.14 134.39 252.33 131.93 253.63 131.2C254.1 130.94 254.98 131.25 255.5 131.53C257.24 132.46 258.52 134.19 259.65 135.76C259.88 136.08 260.26 135.85 260.39 135.57C261.04 134.06 261.75 132.42 263.21 131.52C263.91 131.09 264.78 130.82 265.61 130.99C266.09 131.09 267.15 131.59 267.22 132.21C266.93 132.95 266.25 133.52 265.71 134.07Z" fill="#FFFFFF" fill-opacity="1.000000" fill-rule="nonzero"/>
		<path id="Vector" d="M319.07 128.53C316.64 128.87 315.28 131.02 314.31 133.09C313.11 131.44 311.62 129.63 309.72 128.92C308.77 128.56 307.78 128.54 307.13 129.42C305.65 131.4 306.71 134.41 307.86 136.25C309.41 138.73 311.73 140.62 313.95 142.47C314.11 142.6 314.31 142.44 314.42 142.34C316.06 140.85 317.66 139.33 319.23 137.76C320.51 136.48 322.17 135.17 322.75 133.39C322.75 133.38 322.75 133.38 322.76 133.37C322.76 133.34 322.78 133.31 322.78 133.28C322.84 133.11 322.87 132.88 322.88 132.64C323.01 130.44 321.51 128.2 319.07 128.53ZM320.17 134.07C319.47 134.8 318.76 135.51 318.04 136.22C316.75 137.49 315.44 138.74 314.1 139.96C312.33 138.5 310.54 136.98 309.16 135.14C308.6 134.39 306.79 131.93 308.09 131.2C308.55 130.94 309.44 131.25 309.95 131.53C311.69 132.46 312.98 134.19 314.1 135.76C314.34 136.08 314.72 135.85 314.84 135.57C315.49 134.06 316.2 132.42 317.66 131.52C318.37 131.09 319.23 130.82 320.06 130.99C320.55 131.09 321.61 131.59 321.67 132.21C321.39 132.95 320.7 133.52 320.17 134.07Z" fill="#FFFFFF" fill-opacity="1.000000" fill-rule="nonzero"/>
		<path id="Vector" d="M373.52 128.53C371.1 128.87 369.73 131.02 368.77 133.09C367.57 131.44 366.08 129.63 364.17 128.92C363.22 128.56 362.24 128.54 361.58 129.42C360.1 131.4 361.16 134.41 362.31 136.25C363.86 138.73 366.19 140.62 368.41 142.47C368.56 142.6 368.77 142.44 368.88 142.34C370.51 140.85 372.12 139.33 373.68 137.76C374.97 136.48 376.63 135.17 377.2 133.39C377.21 133.38 377.21 133.38 377.21 133.37C377.22 133.34 377.23 133.31 377.24 133.28C377.29 133.11 377.33 132.88 377.34 132.64C377.47 130.44 375.97 128.2 373.52 128.53ZM374.62 134.07C373.92 134.8 373.21 135.51 372.5 136.22C371.21 137.49 369.89 138.74 368.55 139.96C366.79 138.5 365 136.98 363.61 135.14C363.05 134.39 361.24 131.93 362.54 131.2C363.01 130.94 363.89 131.25 364.41 131.53C366.15 132.46 367.43 134.19 368.56 135.76C368.79 136.08 369.17 135.85 369.3 135.57C369.95 134.06 370.66 132.42 372.12 131.52C372.82 131.09 373.69 130.82 374.52 130.99C375 131.09 376.06 131.59 376.13 132.21C375.84 132.95 375.16 133.52 374.62 134.07Z" fill="#FFFFFF" fill-opacity="1.000000" fill-rule="nonzero"/>
		<path id="Vector" d="M427.98 128.53C425.55 128.87 424.19 131.02 423.22 133.09C422.02 131.44 420.54 129.63 418.63 128.92C417.68 128.56 416.69 128.54 416.04 129.42C414.56 131.4 415.62 134.41 416.77 136.25C418.32 138.73 420.64 140.62 422.86 142.47C423.02 142.6 423.22 142.44 423.33 142.34C424.97 140.85 426.57 139.33 428.14 137.76C429.42 136.48 431.08 135.17 431.66 133.39C431.66 133.38 431.66 133.38 431.67 133.37C431.68 133.34 431.69 133.31 431.7 133.28C431.75 133.11 431.78 132.88 431.79 132.64C431.92 130.44 430.42 128.2 427.98 128.53ZM429.08 134.07C428.38 134.8 427.67 135.51 426.95 136.22C425.66 137.49 424.35 138.74 423.01 139.96C421.25 138.5 419.45 136.98 418.07 135.14C417.51 134.39 415.7 131.93 417 131.2C417.46 130.94 418.35 131.25 418.86 131.53C420.6 132.46 421.89 134.19 423.01 135.76C423.25 136.08 423.63 135.85 423.75 135.57C424.4 134.06 425.11 132.42 426.57 131.52C427.28 131.09 428.14 130.82 428.98 130.99C429.46 131.09 430.52 131.59 430.58 132.21C430.3 132.95 429.61 133.52 429.08 134.07Z" fill="#FFFFFF" fill-opacity="1.000000" fill-rule="nonzero"/>
		<path id="Vector" d="M19.56 169.01C17.14 169.35 15.77 171.5 14.81 173.57C13.61 171.92 12.12 170.11 10.21 169.4C9.26 169.04 8.28 169.02 7.62 169.9C6.14 171.88 7.2 174.89 8.35 176.74C9.9 179.21 12.23 181.1 14.45 182.95C14.6 183.08 14.81 182.92 14.92 182.82C16.55 181.33 18.16 179.81 19.72 178.24C21.01 176.96 22.67 175.65 23.24 173.87C23.25 173.86 23.25 173.86 23.25 173.85C23.26 173.82 23.27 173.79 23.28 173.76C23.33 173.59 23.37 173.36 23.38 173.12C23.51 170.92 22.01 168.68 19.56 169.01ZM20.66 174.55C19.96 175.28 19.25 175.99 18.54 176.7C17.25 177.97 15.93 179.22 14.59 180.44C12.83 178.97 11.04 177.46 9.65 175.62C9.09 174.87 7.28 172.41 8.58 171.68C9.05 171.42 9.93 171.74 10.45 172.01C12.19 172.94 13.47 174.67 14.6 176.24C14.83 176.56 15.21 176.33 15.34 176.05C15.99 174.54 16.7 172.9 18.16 172C18.86 171.57 19.73 171.3 20.56 171.47C21.04 171.57 22.1 172.07 22.17 172.69C21.88 173.43 21.2 174 20.66 174.55Z" fill="#FFFFFF" fill-opacity="1.000000" fill-rule="nonzero"/>
		<path id="Vector" d="M74.02 169.01C71.59 169.35 70.23 171.5 69.27 173.57C68.06 171.92 66.58 170.11 64.67 169.4C63.72 169.04 62.73 169.02 62.08 169.9C60.6 171.88 61.66 174.89 62.81 176.74C64.36 179.21 66.68 181.1 68.9 182.95C69.06 183.08 69.26 182.92 69.37 182.82C71.01 181.33 72.61 179.81 74.18 178.24C75.46 176.96 77.12 175.65 77.7 173.87C77.7 173.86 77.7 173.86 77.71 173.85C77.72 173.82 77.73 173.79 77.74 173.76C77.79 173.59 77.82 173.36 77.83 173.12C77.96 170.92 76.46 168.68 74.02 169.01ZM75.12 174.55C74.42 175.28 73.71 175.99 72.99 176.7C71.7 177.97 70.39 179.22 69.05 180.44C67.29 178.97 65.49 177.46 64.11 175.62C63.55 174.87 61.74 172.41 63.04 171.68C63.5 171.42 64.39 171.74 64.9 172.01C66.64 172.94 67.93 174.67 69.05 176.24C69.29 176.56 69.67 176.33 69.79 176.05C70.44 174.54 71.15 172.9 72.61 172C73.32 171.57 74.19 171.3 75.02 171.47C75.5 171.57 76.56 172.07 76.62 172.69C76.34 173.43 75.65 174 75.12 174.55Z" fill="#FFFFFF" fill-opacity="1.000000" fill-rule="nonzero"/>
		<path id="Vector" d="M128.47 169.01C126.05 169.35 124.68 171.5 123.72 173.57C122.52 171.92 121.03 170.11 119.12 169.4C118.17 169.04 117.19 169.02 116.53 169.9C115.06 171.88 116.11 174.89 117.27 176.74C118.82 179.21 121.14 181.1 123.36 182.95C123.51 183.08 123.72 182.92 123.83 182.82C125.46 181.33 127.07 179.81 128.63 178.24C129.92 176.96 131.58 175.65 132.15 173.87C132.16 173.86 132.16 173.86 132.16 173.85C132.17 173.82 132.18 173.79 132.19 173.76C132.24 173.59 132.28 173.36 132.29 173.12C132.42 170.92 130.92 168.68 128.47 169.01ZM129.57 174.55C128.87 175.28 128.16 175.99 127.45 176.7C126.16 177.97 124.84 179.22 123.51 180.44C121.74 178.97 119.95 177.46 118.56 175.62C118 174.87 116.2 172.41 117.49 171.68C117.96 171.42 118.84 171.74 119.36 172.01C121.1 172.94 122.38 174.67 123.51 176.24C123.74 176.56 124.12 176.33 124.25 176.05C124.9 174.54 125.61 172.9 127.07 172C127.77 171.57 128.64 171.3 129.47 171.47C129.95 171.57 131.01 172.07 131.08 172.69C130.79 173.43 130.11 174 129.57 174.55Z" fill="#FFFFFF" fill-opacity="1.000000" fill-rule="nonzero"/>
		<path id="Vector" d="M182.93 169.01C180.5 169.35 179.14 171.5 178.18 173.57C176.98 171.92 175.49 170.11 173.58 169.4C172.63 169.04 171.64 169.02 170.99 169.9C169.51 171.88 170.57 174.89 171.72 176.74C173.27 179.21 175.59 181.1 177.81 182.95C177.97 183.08 178.18 182.92 178.28 182.82C179.92 181.33 181.52 179.81 183.09 178.24C184.37 176.96 186.03 175.65 186.61 173.87C186.61 173.86 186.61 173.86 186.62 173.85C186.63 173.82 186.64 173.79 186.65 173.76C186.7 173.59 186.74 173.36 186.74 173.12C186.88 170.92 185.37 168.68 182.93 169.01ZM184.03 174.55C183.33 175.28 182.62 175.99 181.9 176.7C180.61 177.97 179.3 179.22 177.96 180.44C176.2 178.97 174.4 177.46 173.02 175.62C172.46 174.87 170.65 172.41 171.95 171.68C172.42 171.42 173.3 171.74 173.81 172.01C175.55 172.94 176.84 174.67 177.96 176.24C178.2 176.56 178.58 176.33 178.7 176.05C179.35 174.54 180.07 172.9 181.52 172C182.23 171.57 183.1 171.3 183.93 171.47C184.41 171.57 185.47 172.07 185.53 172.69C185.25 173.43 184.56 174 184.03 174.55Z" fill="#FFFFFF" fill-opacity="1.000000" fill-rule="nonzero"/>
		<path id="Vector" d="M237.38 169.01C234.96 169.35 233.59 171.5 232.63 173.57C231.43 171.92 229.94 170.11 228.03 169.4C227.08 169.04 226.1 169.02 225.44 169.9C223.97 171.88 225.02 174.89 226.18 176.74C227.73 179.21 230.05 181.1 232.27 182.95C232.42 183.08 232.63 182.92 232.74 182.82C234.38 181.33 235.98 179.81 237.55 178.24C238.83 176.96 240.49 175.65 241.07 173.87C241.07 173.86 241.07 173.85 241.07 173.85C241.08 173.82 241.09 173.79 241.1 173.76C241.15 173.59 241.19 173.36 241.2 173.12C241.33 170.92 239.83 168.68 237.38 169.01ZM238.48 174.55C237.78 175.28 237.08 175.99 236.36 176.7C235.07 177.97 233.75 179.22 232.42 180.44C230.65 178.97 228.86 177.46 227.47 175.62C226.91 174.87 225.11 172.41 226.4 171.68C226.87 171.42 227.75 171.74 228.27 172.01C230.01 172.94 231.3 174.67 232.42 176.24C232.65 176.56 233.03 176.33 233.16 176.05C233.81 174.54 234.52 172.9 235.98 172C236.68 171.57 237.55 171.3 238.38 171.47C238.86 171.57 239.93 172.07 239.99 172.69C239.7 173.43 239.02 174 238.48 174.55Z" fill="#FFFFFF" fill-opacity="1.000000" fill-rule="nonzero"/>
		<path id="Vector" d="M291.84 169.01C289.41 169.35 288.05 171.5 287.09 173.57C285.89 171.92 284.4 170.11 282.49 169.4C281.54 169.04 280.55 169.02 279.9 169.9C278.42 171.88 279.48 174.89 280.63 176.74C282.18 179.21 284.5 181.1 286.72 182.95C286.88 183.08 287.09 182.92 287.19 182.82C288.83 181.33 290.44 179.81 292 178.24C293.28 176.96 294.94 175.65 295.52 173.87C295.52 173.86 295.53 173.86 295.53 173.85C295.54 173.82 295.55 173.79 295.56 173.76C295.61 173.59 295.65 173.36 295.65 173.12C295.79 170.92 294.28 168.68 291.84 169.01ZM292.94 174.55C292.24 175.28 291.53 175.99 290.81 176.7C289.53 177.97 288.21 179.22 286.87 180.44C285.11 178.97 283.31 177.46 281.93 175.62C281.37 174.87 279.56 172.41 280.86 171.68C281.32 171.42 282.21 171.74 282.72 172.01C284.47 172.94 285.75 174.67 286.87 176.24C287.11 176.56 287.49 176.33 287.61 176.05C288.26 174.54 288.98 172.9 290.43 172C291.14 171.57 292.01 171.3 292.84 171.47C293.32 171.57 294.38 172.07 294.44 172.69C294.16 173.43 293.48 174 292.94 174.55Z" fill="#FFFFFF" fill-opacity="1.000000" fill-rule="nonzero"/>
		<path id="Vector" d="M346.29 169.01C343.87 169.35 342.5 171.5 341.54 173.57C340.34 171.92 338.85 170.11 336.95 169.4C335.99 169.04 335.01 169.02 334.35 169.9C332.88 171.88 333.93 174.89 335.09 176.74C336.64 179.21 338.96 181.1 341.18 182.95C341.33 183.08 341.54 182.92 341.65 182.82C343.29 181.33 344.89 179.81 346.46 178.24C347.74 176.96 349.4 175.65 349.98 173.87C349.98 173.86 349.98 173.85 349.98 173.85C349.99 173.82 350 173.79 350.01 173.76C350.06 173.59 350.1 173.36 350.11 173.12C350.24 170.92 348.74 168.68 346.29 169.01ZM347.39 174.55C346.69 175.28 345.99 175.99 345.27 176.7C343.98 177.97 342.66 179.22 341.33 180.44C339.56 178.97 337.77 177.46 336.38 175.62C335.82 174.87 334.02 172.41 335.32 171.68C335.78 171.42 336.66 171.74 337.18 172.01C338.92 172.94 340.21 174.67 341.33 176.24C341.56 176.56 341.94 176.33 342.07 176.05C342.72 174.54 343.43 172.9 344.89 172C345.59 171.57 346.46 171.3 347.29 171.47C347.77 171.57 348.84 172.07 348.9 172.69C348.61 173.43 347.93 174 347.39 174.55Z" fill="#FFFFFF" fill-opacity="1.000000" fill-rule="nonzero"/>
		<path id="Vector" d="M400.75 169.01C398.32 169.35 396.96 171.5 396 173.57C394.8 171.92 393.31 170.11 391.4 169.4C390.45 169.04 389.46 169.02 388.81 169.9C387.33 171.88 388.39 174.89 389.54 176.74C391.09 179.21 393.41 181.1 395.63 182.95C395.79 183.08 396 182.92 396.1 182.82C397.74 181.33 399.35 179.81 400.91 178.24C402.19 176.96 403.85 175.65 404.43 173.87C404.43 173.86 404.44 173.86 404.44 173.85C404.45 173.82 404.46 173.79 404.47 173.76C404.52 173.59 404.56 173.36 404.56 173.12C404.7 170.92 403.19 168.68 400.75 169.01ZM401.85 174.55C401.15 175.28 400.44 175.99 399.72 176.7C398.44 177.97 397.12 179.22 395.78 180.44C394.02 178.97 392.22 177.46 390.84 175.62C390.28 174.87 388.47 172.41 389.77 171.68C390.24 171.42 391.12 171.74 391.64 172.01C393.38 172.94 394.66 174.67 395.79 176.24C396.02 176.56 396.4 176.33 396.52 176.05C397.18 174.54 397.89 172.9 399.34 172C400.05 171.57 400.92 171.3 401.75 171.47C402.23 171.57 403.29 172.07 403.35 172.69C403.07 173.43 402.39 174 401.85 174.55Z" fill="#FFFFFF" fill-opacity="1.000000" fill-rule="nonzero"/>
		<path id="Vector" d="M455.21 169.01C452.78 169.35 451.41 171.5 450.45 173.57C449.25 171.92 447.76 170.11 445.86 169.4C444.9 169.04 443.92 169.02 443.27 169.9C441.79 171.88 442.84 174.89 444 176.74C445.55 179.21 447.87 181.1 450.09 182.95C450.25 183.08 450.45 182.92 450.56 182.82C452.2 181.33 453.8 179.81 455.37 178.24C456.65 176.96 458.31 175.65 458.89 173.87C458.89 173.86 458.89 173.85 458.89 173.85C458.9 173.82 458.91 173.79 458.92 173.76C458.97 173.59 459.01 173.36 459.02 173.12C459.15 170.92 457.65 168.68 455.21 169.01ZM456.3 174.55C455.6 175.28 454.9 175.99 454.18 176.7C452.89 177.97 451.57 179.22 450.24 180.44C448.47 178.97 446.68 177.46 445.29 175.62C444.74 174.87 442.93 172.41 444.23 171.68C444.69 171.42 445.57 171.74 446.09 172.01C447.83 172.94 449.12 174.67 450.24 176.24C450.47 176.56 450.85 176.33 450.98 176.05C451.63 174.54 452.34 172.9 453.8 172C454.5 171.57 455.37 171.3 456.2 171.47C456.68 171.57 457.75 172.07 457.81 172.69C457.52 173.43 456.84 174 456.3 174.55Z" fill="#FFFFFF" fill-opacity="1.000000" fill-rule="nonzero"/>
		<path id="Vector" d="M46.79 209.49C44.36 209.83 43 211.98 42.04 214.05C40.84 212.4 39.35 210.59 37.44 209.88C36.49 209.52 35.5 209.5 34.85 210.38C33.37 212.36 34.43 215.37 35.58 217.22C37.13 219.69 39.46 221.58 41.67 223.43C41.83 223.56 42.04 223.4 42.14 223.3C43.78 221.81 45.39 220.29 46.95 218.72C48.23 217.44 49.89 216.13 50.47 214.35C50.47 214.34 50.48 214.34 50.48 214.33C50.49 214.3 50.5 214.27 50.51 214.24C50.56 214.07 50.6 213.84 50.6 213.6C50.74 211.4 49.23 209.16 46.79 209.49ZM47.89 215.03C47.19 215.76 46.48 216.47 45.77 217.18C44.48 218.45 43.16 219.7 41.82 220.92C40.06 219.45 38.26 217.94 36.88 216.1C36.32 215.35 34.51 212.89 35.81 212.16C36.28 211.9 37.16 212.21 37.68 212.49C39.42 213.42 40.7 215.15 41.83 216.72C42.06 217.04 42.44 216.81 42.56 216.52C43.22 215.02 43.93 213.38 45.38 212.48C46.09 212.05 46.96 211.78 47.79 211.95C48.27 212.05 49.33 212.55 49.4 213.17C49.11 213.91 48.43 214.48 47.89 215.03Z" fill="#FFFFFF" fill-opacity="1.000000" fill-rule="nonzero"/>
		<path id="Vector" d="M101.25 209.49C98.82 209.83 97.45 211.98 96.49 214.05C95.29 212.4 93.8 210.59 91.9 209.88C90.95 209.52 89.96 209.5 89.31 210.38C87.83 212.36 88.88 215.37 90.04 217.22C91.59 219.69 93.91 221.58 96.13 223.43C96.29 223.56 96.49 223.4 96.6 223.3C98.24 221.81 99.84 220.29 101.41 218.72C102.69 217.44 104.35 216.13 104.93 214.35C104.93 214.34 104.93 214.33 104.94 214.33C104.94 214.3 104.96 214.27 104.96 214.24C105.01 214.07 105.05 213.84 105.06 213.6C105.19 211.4 103.69 209.16 101.25 209.49ZM102.34 215.03C101.64 215.76 100.94 216.47 100.22 217.18C98.93 218.45 97.62 219.7 96.28 220.92C94.51 219.45 92.72 217.94 91.33 216.1C90.78 215.35 88.97 212.89 90.27 212.16C90.73 211.9 91.61 212.21 92.13 212.49C93.87 213.42 95.16 215.15 96.28 216.72C96.51 217.04 96.89 216.81 97.02 216.52C97.67 215.02 98.38 213.38 99.84 212.48C100.55 212.05 101.41 211.78 102.24 211.95C102.73 212.05 103.79 212.55 103.85 213.17C103.57 213.91 102.88 214.48 102.34 215.03Z" fill="#FFFFFF" fill-opacity="1.000000" fill-rule="nonzero"/>
		<path id="Vector" d="M155.7 209.49C153.27 209.83 151.91 211.98 150.95 214.05C149.75 212.4 148.26 210.59 146.35 209.88C145.4 209.52 144.42 209.5 143.76 210.38C142.28 212.36 143.34 215.37 144.49 217.22C146.04 219.69 148.37 221.58 150.58 223.43C150.74 223.56 150.95 223.4 151.05 223.3C152.69 221.81 154.3 220.29 155.86 218.72C157.14 217.44 158.81 216.13 159.38 214.35C159.38 214.34 159.39 214.34 159.39 214.33C159.4 214.3 159.41 214.27 159.42 214.24C159.47 214.07 159.51 213.84 159.51 213.6C159.65 211.4 158.14 209.16 155.7 209.49ZM156.8 215.03C156.1 215.76 155.39 216.47 154.68 217.18C153.39 218.45 152.07 219.7 150.73 220.92C148.97 219.45 147.17 217.94 145.79 216.1C145.23 215.35 143.42 212.89 144.72 212.16C145.19 211.9 146.07 212.21 146.59 212.49C148.33 213.42 149.61 215.15 150.74 216.72C150.97 217.04 151.35 216.81 151.48 216.52C152.13 215.02 152.84 213.38 154.3 212.48C155 212.05 155.87 211.78 156.7 211.95C157.18 212.05 158.24 212.55 158.31 213.17C158.02 213.91 157.34 214.48 156.8 215.03Z" fill="#FFFFFF" fill-opacity="1.000000" fill-rule="nonzero"/>
		<path id="Vector" d="M210.16 209.49C207.73 209.83 206.37 211.98 205.4 214.05C204.2 212.4 202.71 210.59 200.81 209.88C199.86 209.52 198.87 209.5 198.22 210.38C196.74 212.36 197.79 215.37 198.95 217.22C200.5 219.69 202.82 221.58 205.04 223.43C205.2 223.56 205.4 223.4 205.51 223.3C207.15 221.81 208.75 220.29 210.32 218.72C211.6 217.44 213.26 216.13 213.84 214.35C213.84 214.34 213.84 214.33 213.85 214.33C213.85 214.3 213.87 214.27 213.87 214.24C213.92 214.07 213.96 213.84 213.97 213.6C214.1 211.4 212.6 209.16 210.16 209.49ZM211.26 215.03C210.56 215.76 209.85 216.47 209.13 217.18C207.84 218.45 206.53 219.7 205.19 220.92C203.42 219.45 201.63 217.94 200.25 216.1C199.69 215.35 197.88 212.89 199.18 212.16C199.64 211.9 200.52 212.21 201.04 212.49C202.78 213.42 204.07 215.15 205.19 216.72C205.43 217.04 205.81 216.81 205.93 216.52C206.58 215.02 207.29 213.38 208.75 212.48C209.46 212.05 210.32 211.78 211.15 211.95C211.64 212.05 212.7 212.55 212.76 213.17C212.48 213.91 211.79 214.48 211.26 215.03Z" fill="#FFFFFF" fill-opacity="1.000000" fill-rule="nonzero"/>
		<path id="Vector" d="M264.61 209.49C262.19 209.83 260.82 211.98 259.86 214.05C258.66 212.4 257.17 210.59 255.26 209.88C254.31 209.52 253.33 209.5 252.67 210.38C251.19 212.36 252.25 215.37 253.4 217.22C254.95 219.69 257.28 221.58 259.5 223.43C259.65 223.56 259.86 223.4 259.96 223.3C261.6 221.81 263.21 220.29 264.77 218.72C266.06 217.44 267.72 216.13 268.29 214.35C268.29 214.34 268.3 214.34 268.3 214.33C268.31 214.3 268.32 214.27 268.33 214.24C268.38 214.07 268.42 213.84 268.42 213.6C268.56 211.4 267.05 209.16 264.61 209.49ZM265.71 215.03C265.01 215.76 264.3 216.47 263.59 217.18C262.3 218.45 260.98 219.7 259.64 220.92C257.88 219.45 256.09 217.94 254.7 216.1C254.14 215.35 252.33 212.89 253.63 212.16C254.1 211.9 254.98 212.21 255.5 212.49C257.24 213.42 258.52 215.15 259.65 216.72C259.88 217.04 260.26 216.81 260.39 216.52C261.04 215.02 261.75 213.38 263.21 212.48C263.91 212.05 264.78 211.78 265.61 211.95C266.09 212.05 267.15 212.55 267.22 213.17C266.93 213.91 266.25 214.48 265.71 215.03Z" fill="#FFFFFF" fill-opacity="1.000000" fill-rule="nonzero"/>
		<path id="Vector" d="M319.07 209.49C316.64 209.83 315.28 211.98 314.31 214.05C313.11 212.4 311.62 210.59 309.72 209.88C308.77 209.52 307.78 209.5 307.13 210.38C305.65 212.36 306.71 215.37 307.86 217.22C309.41 219.69 311.73 221.58 313.95 223.43C314.11 223.56 314.31 223.4 314.42 223.3C316.06 221.81 317.66 220.29 319.23 218.72C320.51 217.44 322.17 216.13 322.75 214.35C322.75 214.34 322.75 214.34 322.76 214.33C322.76 214.3 322.78 214.27 322.78 214.24C322.84 214.07 322.87 213.84 322.88 213.6C323.01 211.4 321.51 209.16 319.07 209.49ZM320.17 215.03C319.47 215.76 318.76 216.47 318.04 217.18C316.75 218.45 315.44 219.7 314.1 220.92C312.33 219.45 310.54 217.94 309.16 216.1C308.6 215.35 306.79 212.89 308.09 212.16C308.55 211.9 309.44 212.21 309.95 212.49C311.69 213.42 312.98 215.15 314.1 216.72C314.34 217.04 314.72 216.81 314.84 216.52C315.49 215.02 316.2 213.38 317.66 212.48C318.37 212.05 319.23 211.78 320.06 211.95C320.55 212.05 321.61 212.55 321.67 213.17C321.39 213.91 320.7 214.48 320.17 215.03Z" fill="#FFFFFF" fill-opacity="1.000000" fill-rule="nonzero"/>
		<path id="Vector" d="M373.52 209.49C371.1 209.83 369.73 211.98 368.77 214.05C367.57 212.4 366.08 210.59 364.17 209.88C363.22 209.52 362.24 209.5 361.58 210.38C360.1 212.36 361.16 215.37 362.31 217.22C363.86 219.69 366.19 221.58 368.41 223.43C368.56 223.56 368.77 223.4 368.88 223.3C370.51 221.81 372.12 220.29 373.68 218.72C374.97 217.44 376.63 216.13 377.2 214.35C377.21 214.34 377.21 214.34 377.21 214.33C377.22 214.3 377.23 214.27 377.24 214.24C377.29 214.07 377.33 213.84 377.34 213.6C377.47 211.4 375.97 209.16 373.52 209.49ZM374.62 215.03C373.92 215.76 373.21 216.47 372.5 217.18C371.21 218.45 369.89 219.7 368.55 220.92C366.79 219.45 365 217.94 363.61 216.1C363.05 215.35 361.24 212.89 362.54 212.16C363.01 211.9 363.89 212.21 364.41 212.49C366.15 213.42 367.43 215.15 368.56 216.72C368.79 217.04 369.17 216.81 369.3 216.52C369.95 215.02 370.66 213.38 372.12 212.48C372.82 212.05 373.69 211.78 374.52 211.95C375 212.05 376.06 212.55 376.13 213.17C375.84 213.91 375.16 214.48 374.62 215.03Z" fill="#FFFFFF" fill-opacity="1.000000" fill-rule="nonzero"/>
		<path id="Vector" d="M427.98 209.49C425.55 209.83 424.19 211.98 423.22 214.05C422.02 212.4 420.54 210.59 418.63 209.88C417.68 209.52 416.69 209.5 416.04 210.38C414.56 212.36 415.62 215.37 416.77 217.22C418.32 219.69 420.64 221.58 422.86 223.43C423.02 223.56 423.22 223.4 423.33 223.3C424.97 221.81 426.57 220.29 428.14 218.72C429.42 217.44 431.08 216.13 431.66 214.35C431.66 214.34 431.66 214.34 431.67 214.33C431.67 214.3 431.69 214.27 431.7 214.24C431.75 214.07 431.78 213.84 431.79 213.6C431.92 211.4 430.42 209.16 427.98 209.49ZM429.08 215.03C428.38 215.76 427.67 216.47 426.95 217.18C425.66 218.45 424.35 219.7 423.01 220.92C421.25 219.45 419.45 217.94 418.07 216.1C417.51 215.35 415.7 212.89 417 212.16C417.46 211.9 418.35 212.21 418.86 212.49C420.6 213.42 421.89 215.15 423.01 216.72C423.25 217.04 423.63 216.81 423.75 216.52C424.4 215.02 425.11 213.38 426.57 212.48C427.28 212.05 428.14 211.78 428.98 211.95C429.46 212.05 430.52 212.55 430.58 213.17C430.3 213.91 429.61 214.48 429.08 215.03Z" fill="#FFFFFF" fill-opacity="1.000000" fill-rule="nonzero"/>
		<path id="Vector" d="M19.56 249.97C17.14 250.31 15.77 252.46 14.81 254.53C13.61 252.88 12.12 251.07 10.21 250.36C9.26 250 8.28 249.98 7.62 250.86C6.14 252.84 7.2 255.85 8.35 257.7C9.9 260.17 12.23 262.06 14.45 263.91C14.6 264.04 14.81 263.88 14.92 263.78C16.55 262.29 18.16 260.77 19.72 259.2C21.01 257.92 22.67 256.61 23.24 254.83C23.25 254.82 23.25 254.82 23.25 254.81C23.26 254.78 23.27 254.75 23.28 254.72C23.33 254.55 23.37 254.32 23.38 254.08C23.51 251.88 22.01 249.64 19.56 249.97ZM20.66 255.51C19.96 256.24 19.25 256.95 18.54 257.66C17.25 258.93 15.93 260.18 14.59 261.4C12.83 259.93 11.04 258.42 9.65 256.57C9.09 255.83 7.28 253.37 8.58 252.64C9.05 252.38 9.93 252.69 10.45 252.97C12.19 253.9 13.47 255.63 14.6 257.2C14.83 257.52 15.21 257.29 15.34 257C15.99 255.5 16.7 253.86 18.16 252.96C18.86 252.53 19.73 252.26 20.56 252.43C21.04 252.53 22.1 253.03 22.17 253.65C21.88 254.39 21.2 254.96 20.66 255.51Z" fill="#FFFFFF" fill-opacity="1.000000" fill-rule="nonzero"/>
		<path id="Vector" d="M74.02 249.97C71.59 250.31 70.23 252.46 69.27 254.53C68.06 252.88 66.58 251.07 64.67 250.36C63.72 250 62.73 249.98 62.08 250.86C60.6 252.84 61.66 255.85 62.81 257.7C64.36 260.17 66.68 262.06 68.9 263.91C69.06 264.04 69.26 263.88 69.37 263.78C71.01 262.29 72.61 260.77 74.18 259.2C75.46 257.92 77.12 256.61 77.7 254.83C77.7 254.82 77.7 254.82 77.71 254.81C77.71 254.78 77.73 254.75 77.74 254.72C77.79 254.55 77.82 254.32 77.83 254.08C77.96 251.88 76.46 249.64 74.02 249.97ZM75.12 255.51C74.42 256.24 73.71 256.95 72.99 257.66C71.7 258.93 70.39 260.18 69.05 261.4C67.29 259.93 65.49 258.42 64.11 256.57C63.55 255.83 61.74 253.37 63.04 252.64C63.5 252.38 64.39 252.69 64.9 252.97C66.64 253.9 67.93 255.63 69.05 257.2C69.29 257.52 69.67 257.29 69.79 257C70.44 255.5 71.15 253.86 72.61 252.96C73.32 252.53 74.19 252.26 75.02 252.43C75.5 252.53 76.56 253.03 76.62 253.65C76.34 254.39 75.65 254.96 75.12 255.51Z" fill="#FFFFFF" fill-opacity="1.000000" fill-rule="nonzero"/>
		<path id="Vector" d="M128.47 249.97C126.05 250.31 124.68 252.46 123.72 254.53C122.52 252.88 121.03 251.07 119.12 250.36C118.17 250 117.19 249.98 116.53 250.86C115.06 252.84 116.11 255.85 117.27 257.7C118.82 260.17 121.14 262.06 123.36 263.91C123.51 264.04 123.72 263.88 123.83 263.78C125.46 262.29 127.07 260.77 128.63 259.2C129.92 257.92 131.58 256.61 132.15 254.83C132.16 254.82 132.16 254.82 132.16 254.81C132.17 254.78 132.18 254.75 132.19 254.72C132.24 254.55 132.28 254.32 132.29 254.08C132.42 251.88 130.92 249.64 128.47 249.97ZM129.57 255.51C128.87 256.24 128.16 256.95 127.45 257.66C126.16 258.93 124.84 260.18 123.51 261.4C121.74 259.93 119.95 258.42 118.56 256.57C118 255.83 116.2 253.37 117.49 252.64C117.96 252.38 118.84 252.69 119.36 252.97C121.1 253.9 122.38 255.63 123.51 257.2C123.74 257.52 124.12 257.29 124.25 257C124.9 255.5 125.61 253.86 127.07 252.96C127.77 252.53 128.64 252.26 129.47 252.43C129.95 252.53 131.01 253.03 131.08 253.65C130.79 254.39 130.11 254.96 129.57 255.51Z" fill="#FFFFFF" fill-opacity="1.000000" fill-rule="nonzero"/>
		<path id="Vector" d="M182.93 249.97C180.5 250.31 179.14 252.46 178.18 254.53C176.98 252.88 175.49 251.07 173.58 250.36C172.63 250 171.64 249.98 170.99 250.86C169.51 252.84 170.57 255.85 171.72 257.7C173.27 260.17 175.59 262.06 177.81 263.91C177.97 264.04 178.18 263.88 178.28 263.78C179.92 262.29 181.52 260.77 183.09 259.2C184.37 257.92 186.03 256.61 186.61 254.83C186.61 254.82 186.61 254.82 186.62 254.81C186.63 254.78 186.64 254.75 186.65 254.72C186.7 254.55 186.74 254.32 186.74 254.08C186.88 251.88 185.37 249.64 182.93 249.97ZM184.03 255.51C183.33 256.24 182.62 256.95 181.9 257.66C180.61 258.93 179.3 260.18 177.96 261.4C176.2 259.93 174.4 258.42 173.02 256.57C172.46 255.83 170.65 253.37 171.95 252.64C172.42 252.38 173.3 252.69 173.81 252.97C175.55 253.9 176.84 255.63 177.96 257.2C178.2 257.52 178.58 257.29 178.7 257C179.35 255.5 180.07 253.86 181.52 252.96C182.23 252.53 183.1 252.26 183.93 252.43C184.41 252.53 185.47 253.03 185.53 253.65C185.25 254.39 184.56 254.96 184.03 255.51Z" fill="#FFFFFF" fill-opacity="1.000000" fill-rule="nonzero"/>
		<path id="Vector" d="M237.38 249.97C234.96 250.31 233.59 252.46 232.63 254.53C231.43 252.88 229.94 251.07 228.03 250.36C227.08 250 226.1 249.98 225.44 250.86C223.97 252.84 225.02 255.85 226.18 257.7C227.73 260.17 230.05 262.06 232.27 263.91C232.42 264.04 232.63 263.88 232.74 263.78C234.38 262.29 235.98 260.77 237.55 259.2C238.83 257.92 240.49 256.61 241.07 254.83C241.07 254.82 241.07 254.81 241.07 254.81C241.08 254.78 241.09 254.75 241.1 254.72C241.15 254.55 241.19 254.32 241.2 254.08C241.33 251.88 239.83 249.64 237.38 249.97ZM238.48 255.51C237.78 256.24 237.08 256.95 236.36 257.66C235.07 258.93 233.75 260.18 232.42 261.4C230.65 259.93 228.86 258.42 227.47 256.57C226.91 255.83 225.11 253.37 226.4 252.64C226.87 252.38 227.75 252.69 228.27 252.97C230.01 253.9 231.3 255.63 232.42 257.2C232.65 257.52 233.03 257.29 233.16 257C233.81 255.5 234.52 253.86 235.98 252.96C236.68 252.53 237.55 252.26 238.38 252.43C238.86 252.53 239.93 253.03 239.99 253.65C239.7 254.39 239.02 254.96 238.48 255.51Z" fill="#FFFFFF" fill-opacity="1.000000" fill-rule="nonzero"/>
		<path id="Vector" d="M291.84 249.97C289.41 250.31 288.05 252.46 287.09 254.53C285.89 252.88 284.4 251.07 282.49 250.36C281.54 250 280.55 249.98 279.9 250.86C278.42 252.84 279.48 255.85 280.63 257.7C282.18 260.17 284.5 262.06 286.72 263.91C286.88 264.04 287.09 263.88 287.19 263.78C288.83 262.29 290.44 260.77 292 259.2C293.28 257.92 294.94 256.61 295.52 254.83C295.52 254.82 295.53 254.82 295.53 254.81C295.54 254.78 295.55 254.75 295.56 254.72C295.61 254.55 295.65 254.32 295.65 254.08C295.79 251.88 294.28 249.64 291.84 249.97ZM292.94 255.51C292.24 256.24 291.53 256.95 290.81 257.66C289.53 258.93 288.21 260.18 286.87 261.4C285.11 259.93 283.31 258.42 281.93 256.57C281.37 255.83 279.56 253.37 280.86 252.64C281.32 252.38 282.21 252.69 282.72 252.97C284.47 253.9 285.75 255.63 286.87 257.2C287.11 257.52 287.49 257.29 287.61 257C288.26 255.5 288.98 253.86 290.43 252.96C291.14 252.53 292.01 252.26 292.84 252.43C293.32 252.53 294.38 253.03 294.44 253.65C294.16 254.39 293.48 254.96 292.94 255.51Z" fill="#FFFFFF" fill-opacity="1.000000" fill-rule="nonzero"/>
		<path id="Vector" d="M346.29 249.97C343.87 250.31 342.5 252.46 341.54 254.53C340.34 252.88 338.85 251.07 336.95 250.36C335.99 250 335.01 249.98 334.35 250.86C332.88 252.84 333.93 255.85 335.09 257.7C336.64 260.17 338.96 262.06 341.18 263.91C341.33 264.04 341.54 263.88 341.65 263.78C343.29 262.29 344.89 260.77 346.46 259.2C347.74 257.92 349.4 256.61 349.98 254.83C349.98 254.82 349.98 254.81 349.98 254.81C349.99 254.78 350 254.75 350.01 254.72C350.06 254.55 350.1 254.32 350.11 254.08C350.24 251.88 348.74 249.64 346.29 249.97ZM347.39 255.51C346.69 256.24 345.99 256.95 345.27 257.66C343.98 258.93 342.66 260.18 341.33 261.4C339.56 259.93 337.77 258.42 336.38 256.57C335.82 255.83 334.02 253.37 335.32 252.64C335.78 252.38 336.66 252.69 337.18 252.97C338.92 253.9 340.21 255.63 341.33 257.2C341.56 257.52 341.94 257.29 342.07 257C342.72 255.5 343.43 253.86 344.89 252.96C345.59 252.53 346.46 252.26 347.29 252.43C347.77 252.53 348.84 253.03 348.9 253.65C348.61 254.39 347.93 254.96 347.39 255.51Z" fill="#FFFFFF" fill-opacity="1.000000" fill-rule="nonzero"/>
		<path id="Vector" d="M400.75 249.97C398.32 250.31 396.96 252.46 396 254.53C394.8 252.88 393.31 251.07 391.4 250.36C390.45 250 389.46 249.98 388.81 250.86C387.33 252.84 388.39 255.85 389.54 257.7C391.09 260.17 393.41 262.06 395.63 263.91C395.79 264.04 396 263.88 396.1 263.78C397.74 262.29 399.35 260.77 400.91 259.2C402.19 257.92 403.85 256.61 404.43 254.83C404.43 254.82 404.44 254.82 404.44 254.81C404.45 254.78 404.46 254.75 404.47 254.72C404.52 254.55 404.56 254.32 404.56 254.08C404.7 251.88 403.19 249.64 400.75 249.97ZM401.85 255.51C401.15 256.24 400.44 256.95 399.72 257.66C398.44 258.93 397.12 260.18 395.78 261.4C394.02 259.93 392.22 258.42 390.84 256.57C390.28 255.83 388.47 253.37 389.77 252.64C390.24 252.38 391.12 252.69 391.64 252.97C393.38 253.9 394.66 255.63 395.79 257.2C396.02 257.52 396.4 257.29 396.52 257C397.18 255.5 397.89 253.86 399.34 252.96C400.05 252.53 400.92 252.26 401.75 252.43C402.23 252.53 403.29 253.03 403.35 253.65C403.07 254.39 402.39 254.96 401.85 255.51Z" fill="#FFFFFF" fill-opacity="1.000000" fill-rule="nonzero"/>
		<path id="Vector" d="M455.21 249.97C452.78 250.31 451.41 252.46 450.45 254.53C449.25 252.88 447.76 251.07 445.86 250.36C444.9 250 443.92 249.98 443.27 250.86C441.79 252.84 442.84 255.85 444 257.7C445.55 260.17 447.87 262.06 450.09 263.91C450.25 264.04 450.45 263.88 450.56 263.78C452.2 262.29 453.8 260.77 455.37 259.2C456.65 257.92 458.31 256.61 458.89 254.83C458.89 254.82 458.89 254.81 458.89 254.81C458.9 254.78 458.91 254.75 458.92 254.72C458.97 254.55 459.01 254.32 459.02 254.08C459.15 251.88 457.65 249.64 455.21 249.97ZM456.3 255.51C455.6 256.24 454.9 256.95 454.18 257.66C452.89 258.93 451.57 260.18 450.24 261.4C448.47 259.93 446.68 258.42 445.29 256.57C444.74 255.83 442.93 253.37 444.23 252.64C444.69 252.38 445.57 252.69 446.09 252.97C447.83 253.9 449.12 255.63 450.24 257.2C450.47 257.52 450.85 257.29 450.98 257C451.63 255.5 452.34 253.86 453.8 252.96C454.5 252.53 455.37 252.26 456.2 252.43C456.68 252.53 457.75 253.03 457.81 253.65C457.52 254.39 456.84 254.96 456.3 255.51Z" fill="#FFFFFF" fill-opacity="1.000000" fill-rule="nonzero"/>
		<path id="Vector" d="M46.79 290.45C44.36 290.79 43 292.94 42.04 295.01C40.84 293.36 39.35 291.55 37.44 290.84C36.49 290.48 35.5 290.46 34.85 291.34C33.37 293.32 34.43 296.33 35.58 298.17C37.13 300.65 39.46 302.54 41.67 304.39C41.83 304.52 42.04 304.36 42.14 304.26C43.78 302.77 45.39 301.25 46.95 299.68C48.23 298.4 49.89 297.09 50.47 295.31C50.47 295.3 50.48 295.3 50.48 295.29C50.49 295.26 50.5 295.23 50.51 295.2C50.56 295.03 50.6 294.8 50.6 294.56C50.74 292.36 49.23 290.12 46.79 290.45ZM47.89 295.99C47.19 296.72 46.48 297.43 45.77 298.14C44.48 299.41 43.16 300.66 41.82 301.88C40.06 300.41 38.26 298.9 36.88 297.05C36.32 296.31 34.51 293.85 35.81 293.12C36.28 292.86 37.16 293.17 37.68 293.45C39.42 294.38 40.7 296.1 41.83 297.68C42.06 298 42.44 297.77 42.56 297.48C43.22 295.98 43.93 294.34 45.38 293.44C46.09 293.01 46.96 292.74 47.79 292.91C48.27 293.01 49.33 293.51 49.4 294.13C49.11 294.86 48.43 295.44 47.89 295.99Z" fill="#FFFFFF" fill-opacity="1.000000" fill-rule="nonzero"/>
		<path id="Vector" d="M101.25 290.45C98.82 290.79 97.45 292.94 96.49 295.01C95.29 293.36 93.8 291.55 91.9 290.84C90.95 290.48 89.96 290.46 89.31 291.34C87.83 293.32 88.88 296.33 90.04 298.17C91.59 300.65 93.91 302.54 96.13 304.39C96.29 304.52 96.49 304.36 96.6 304.26C98.24 302.77 99.84 301.25 101.41 299.68C102.69 298.4 104.35 297.09 104.93 295.31C104.93 295.3 104.93 295.29 104.94 295.29C104.94 295.26 104.96 295.23 104.96 295.2C105.01 295.03 105.05 294.8 105.06 294.56C105.19 292.36 103.69 290.12 101.25 290.45ZM102.34 295.99C101.64 296.72 100.94 297.43 100.22 298.14C98.93 299.41 97.62 300.66 96.28 301.88C94.51 300.41 92.72 298.9 91.33 297.05C90.78 296.31 88.97 293.85 90.27 293.12C90.73 292.86 91.61 293.17 92.13 293.45C93.87 294.38 95.16 296.1 96.28 297.68C96.51 298 96.89 297.77 97.02 297.48C97.67 295.98 98.38 294.34 99.84 293.44C100.55 293.01 101.41 292.74 102.24 292.91C102.73 293.01 103.79 293.51 103.85 294.13C103.57 294.86 102.88 295.44 102.34 295.99Z" fill="#FFFFFF" fill-opacity="1.000000" fill-rule="nonzero"/>
		<path id="Vector" d="M155.7 290.45C153.27 290.79 151.91 292.94 150.95 295.01C149.75 293.36 148.26 291.55 146.35 290.84C145.4 290.48 144.42 290.46 143.76 291.34C142.28 293.32 143.34 296.33 144.49 298.17C146.04 300.65 148.37 302.54 150.58 304.39C150.74 304.52 150.95 304.36 151.05 304.26C152.69 302.77 154.3 301.25 155.86 299.68C157.14 298.4 158.81 297.09 159.38 295.31C159.38 295.3 159.39 295.3 159.39 295.29C159.4 295.26 159.41 295.23 159.42 295.2C159.47 295.03 159.51 294.8 159.51 294.56C159.65 292.36 158.14 290.12 155.7 290.45ZM156.8 295.99C156.1 296.72 155.39 297.43 154.68 298.14C153.39 299.41 152.07 300.66 150.73 301.88C148.97 300.41 147.17 298.9 145.79 297.05C145.23 296.31 143.42 293.85 144.72 293.12C145.19 292.86 146.07 293.17 146.59 293.45C148.33 294.38 149.61 296.1 150.74 297.68C150.97 298 151.35 297.77 151.48 297.48C152.13 295.98 152.84 294.34 154.3 293.44C155 293.01 155.87 292.74 156.7 292.91C157.18 293.01 158.24 293.51 158.31 294.13C158.02 294.86 157.34 295.44 156.8 295.99Z" fill="#FFFFFF" fill-opacity="1.000000" fill-rule="nonzero"/>
		<path id="Vector" d="M210.16 290.45C207.73 290.79 206.37 292.94 205.4 295.01C204.2 293.36 202.71 291.55 200.81 290.84C199.86 290.48 198.87 290.46 198.22 291.34C196.74 293.32 197.79 296.33 198.95 298.17C200.5 300.65 202.82 302.54 205.04 304.39C205.2 304.52 205.4 304.36 205.51 304.26C207.15 302.77 208.75 301.25 210.32 299.68C211.6 298.4 213.26 297.09 213.84 295.31C213.84 295.3 213.84 295.29 213.85 295.29C213.85 295.26 213.87 295.23 213.87 295.2C213.92 295.03 213.96 294.8 213.97 294.56C214.1 292.36 212.6 290.12 210.16 290.45ZM211.26 295.99C210.56 296.72 209.85 297.43 209.13 298.14C207.84 299.41 206.53 300.66 205.19 301.88C203.42 300.41 201.63 298.9 200.25 297.05C199.69 296.31 197.88 293.85 199.18 293.12C199.64 292.86 200.52 293.17 201.04 293.45C202.78 294.38 204.07 296.1 205.19 297.68C205.43 298 205.81 297.77 205.93 297.48C206.58 295.98 207.29 294.34 208.75 293.44C209.46 293.01 210.32 292.74 211.15 292.91C211.64 293.01 212.7 293.51 212.76 294.13C212.48 294.86 211.79 295.44 211.26 295.99Z" fill="#FFFFFF" fill-opacity="1.000000" fill-rule="nonzero"/>
		<path id="Vector" d="M264.61 290.45C262.19 290.79 260.82 292.94 259.86 295.01C258.66 293.36 257.17 291.55 255.26 290.84C254.31 290.48 253.33 290.46 252.67 291.34C251.19 293.32 252.25 296.33 253.4 298.17C254.95 300.65 257.28 302.54 259.5 304.39C259.65 304.52 259.86 304.36 259.96 304.26C261.6 302.77 263.21 301.25 264.77 299.68C266.06 298.4 267.72 297.09 268.29 295.31C268.29 295.3 268.3 295.3 268.3 295.29C268.31 295.26 268.32 295.23 268.33 295.2C268.38 295.03 268.42 294.8 268.42 294.56C268.56 292.36 267.05 290.12 264.61 290.45ZM265.71 295.99C265.01 296.72 264.3 297.43 263.59 298.14C262.3 299.41 260.98 300.66 259.64 301.88C257.88 300.41 256.09 298.9 254.7 297.05C254.14 296.31 252.33 293.85 253.63 293.12C254.1 292.86 254.98 293.17 255.5 293.45C257.24 294.38 258.52 296.1 259.65 297.68C259.88 298 260.26 297.77 260.39 297.48C261.04 295.98 261.75 294.34 263.21 293.44C263.91 293.01 264.78 292.74 265.61 292.91C266.09 293.01 267.15 293.51 267.22 294.13C266.93 294.86 266.25 295.44 265.71 295.99Z" fill="#FFFFFF" fill-opacity="1.000000" fill-rule="nonzero"/>
		<path id="Vector" d="M319.07 290.45C316.64 290.79 315.28 292.94 314.31 295.01C313.11 293.36 311.62 291.55 309.72 290.84C308.77 290.48 307.78 290.46 307.13 291.34C305.65 293.32 306.71 296.33 307.86 298.17C309.41 300.65 311.73 302.54 313.95 304.39C314.11 304.52 314.31 304.36 314.42 304.26C316.06 302.77 317.66 301.25 319.23 299.68C320.51 298.4 322.17 297.09 322.75 295.31C322.75 295.3 322.75 295.3 322.76 295.29C322.76 295.26 322.78 295.23 322.78 295.2C322.84 295.03 322.87 294.8 322.88 294.56C323.01 292.36 321.51 290.12 319.07 290.45ZM320.17 295.99C319.47 296.72 318.76 297.43 318.04 298.14C316.75 299.41 315.44 300.66 314.1 301.88C312.33 300.41 310.54 298.9 309.16 297.05C308.6 296.31 306.79 293.85 308.09 293.12C308.55 292.86 309.44 293.17 309.95 293.45C311.69 294.38 312.98 296.1 314.1 297.68C314.34 298 314.72 297.77 314.84 297.48C315.49 295.98 316.2 294.34 317.66 293.44C318.37 293.01 319.23 292.74 320.06 292.91C320.55 293.01 321.61 293.51 321.67 294.13C321.39 294.86 320.7 295.44 320.17 295.99Z" fill="#FFFFFF" fill-opacity="1.000000" fill-rule="nonzero"/>
		<path id="Vector" d="M373.52 290.45C371.1 290.79 369.73 292.94 368.77 295.01C367.57 293.36 366.08 291.55 364.17 290.84C363.22 290.48 362.24 290.46 361.58 291.34C360.1 293.32 361.16 296.33 362.31 298.17C363.86 300.65 366.19 302.54 368.41 304.39C368.56 304.52 368.77 304.36 368.88 304.26C370.51 302.77 372.12 301.25 373.68 299.68C374.97 298.4 376.63 297.09 377.2 295.31C377.21 295.3 377.21 295.3 377.21 295.29C377.22 295.26 377.23 295.23 377.24 295.2C377.29 295.03 377.33 294.8 377.34 294.56C377.47 292.36 375.97 290.12 373.52 290.45ZM374.62 295.99C373.92 296.72 373.21 297.43 372.5 298.14C371.21 299.41 369.89 300.66 368.55 301.88C366.79 300.41 365 298.9 363.61 297.05C363.05 296.31 361.24 293.85 362.54 293.12C363.01 292.86 363.89 293.17 364.41 293.45C366.15 294.38 367.43 296.1 368.56 297.68C368.79 298 369.17 297.77 369.3 297.48C369.95 295.98 370.66 294.34 372.12 293.44C372.82 293.01 373.69 292.74 374.52 292.91C375 293.01 376.06 293.51 376.13 294.13C375.84 294.86 375.16 295.44 374.62 295.99Z" fill="#FFFFFF" fill-opacity="1.000000" fill-rule="nonzero"/>
		<path id="Vector" d="M427.98 290.45C425.55 290.79 424.19 292.94 423.22 295.01C422.02 293.36 420.54 291.55 418.63 290.84C417.68 290.48 416.69 290.46 416.04 291.34C414.56 293.32 415.62 296.33 416.77 298.17C418.32 300.65 420.64 302.54 422.86 304.39C423.02 304.52 423.22 304.36 423.33 304.26C424.97 302.77 426.57 301.25 428.14 299.68C429.42 298.4 431.08 297.09 431.66 295.31C431.66 295.3 431.66 295.3 431.67 295.29C431.67 295.26 431.69 295.23 431.7 295.2C431.75 295.03 431.78 294.8 431.79 294.56C431.92 292.36 430.42 290.12 427.98 290.45ZM429.08 295.99C428.38 296.72 427.67 297.43 426.95 298.14C425.66 299.41 424.35 300.66 423.01 301.88C421.25 300.41 419.45 298.9 418.07 297.05C417.51 296.31 415.7 293.85 417 293.12C417.46 292.86 418.35 293.17 418.86 293.45C420.6 294.38 421.89 296.1 423.01 297.68C423.25 298 423.63 297.77 423.75 297.48C424.4 295.98 425.11 294.34 426.57 293.44C427.28 293.01 428.14 292.74 428.98 292.91C429.46 293.01 430.52 293.51 430.58 294.13C430.3 294.86 429.61 295.44 429.08 295.99Z" fill="#FFFFFF" fill-opacity="1.000000" fill-rule="nonzero"/>
	</g>
</svg>
