<svg width="28" height="28" viewBox="0 0 28 28" fill="none" xmlns="http://www.w3.org/2000/svg">
<path d="M20.5603 1.96216C15.7675 1.96216 14.0066 6.85997 14.0066 6.85997C14.0066 6.85997 12.2697 1.96216 7.44405 1.96216C3.81718 1.96216 -0.317199 4.83653 1.20968 11.3706C2.73655 17.9047 14.0197 26.0443 14.0197 26.0443C14.0197 26.0443 25.2612 17.9047 26.7903 11.3706C28.3172 4.83653 24.4803 1.96216 20.5603 1.96216Z" fill="#F44336"/>
<path d="M6.70467 2.44997C10.4672 2.44997 12.3353 6.49466 12.939 8.1331C13.0244 8.36716 13.3503 8.37372 13.4487 8.14622L14 6.85778C13.2234 4.37716 11.0884 1.96216 7.44405 1.96216C5.93467 1.96216 4.33998 2.46091 3.09967 3.5131C4.19561 2.79341 5.47967 2.44997 6.70467 2.44997ZM20.5603 1.96216C19.4031 1.96216 18.3487 2.21372 17.5262 2.72122C18.1037 2.4981 18.819 2.44997 19.5278 2.44997C23.0737 2.44997 26.2478 5.13841 24.815 11.3531C23.5856 16.6884 16.4019 23.1612 14.2078 25.6309C14.0678 25.7884 14.0197 26.0422 14.0197 26.0422C14.0197 26.0422 25.2612 17.9025 26.7903 11.3684C28.3172 4.83653 24.4869 1.96216 20.5603 1.96216Z" fill="#CC3333"/>
<path d="M3.72751 5.4294C4.54782 4.40565 6.01344 3.55909 7.25594 4.53471C7.92751 5.0619 7.63438 6.14253 7.03282 6.59753C6.15782 7.26253 5.39657 7.66284 4.86282 8.70409C4.54344 9.32972 4.35094 10.0144 4.25251 10.7122C4.21313 10.9878 3.85219 11.0557 3.71657 10.8128C2.79344 9.17659 2.53095 6.92346 3.72751 5.4294ZM16.8788 7.5819C16.4938 7.5819 16.2225 7.21003 16.3625 6.85128C16.6228 6.19065 16.9597 5.5519 17.3644 4.98315C17.9638 4.14315 19.1034 3.65315 19.8253 4.16284C20.5647 4.68346 20.4684 5.72471 19.95 6.22784C18.8366 7.30628 17.4322 7.5819 16.8788 7.5819Z" fill="#FF8A80"/>
</svg>
